<svg width="178" height="41" viewBox="0 0 178 41" fill="none" xmlns="http://www.w3.org/2000/svg">
<path d="M42.0273 25.7966V10.9141H52.5592V13.6366H45.196V16.8721H52.4031V19.5946H45.196V23.0531H52.5592V25.7979H42.0273V25.7966Z" fill="white"/>
<path d="M54.998 25.7966V10.9141H60.8656C65.5286 10.9141 68.7642 13.8819 68.7642 18.3665C68.7642 22.8511 65.5286 25.7966 60.8656 25.7966H54.998ZM58.1667 23.0072H60.8669C63.8125 23.0072 65.5299 20.8882 65.5299 18.3665C65.5299 15.8447 63.924 13.7035 60.8669 13.7035H58.1667V23.0072Z" fill="white"/>
<path d="M70.6191 10.9141H73.8324V19.7494C73.8324 21.825 74.9699 23.2525 77.291 23.2525C79.612 23.2525 80.7049 21.825 80.7049 19.7494V10.9141H83.9182V19.8386C83.9182 23.5425 81.7992 26.0643 77.291 26.0643C72.7827 26.0643 70.6191 23.5202 70.6191 19.8609V10.9141Z" fill="white"/>
<path d="M92.5762 25.7966V10.9141H99.5379C102.773 10.9141 104.536 13.1012 104.536 15.7109C104.536 18.3206 102.75 20.4631 99.5379 20.4631H95.7448V25.7953H92.5762V25.7966ZM99.1141 13.6366H95.7448V17.7419H99.1141C100.363 17.7419 101.301 16.939 101.301 15.6886C101.301 14.4382 100.365 13.6352 99.1141 13.6352V13.6366Z" fill="white"/>
<path d="M112.368 25.7935V24.6782C111.632 25.5481 110.359 26.0611 108.954 26.0611C107.235 26.0611 105.205 24.9013 105.205 22.4911C105.205 20.0808 107.236 19.0548 108.954 19.0548C110.381 19.0548 111.654 19.5009 112.368 20.3708V18.8764C112.368 17.7834 111.431 17.0697 110.002 17.0697C108.842 17.0697 107.771 17.4935 106.856 18.3411L105.785 16.4452C107.101 15.2853 108.797 14.75 110.493 14.75C112.946 14.75 115.2 15.7314 115.2 18.8331V25.7948H112.366L112.368 25.7935ZM112.368 21.8665C111.899 21.242 111.007 20.9297 110.091 20.9297C108.976 20.9297 108.06 21.532 108.06 22.558C108.06 23.584 108.975 24.1416 110.091 24.1416C111.006 24.1416 111.899 23.8294 112.368 23.2048V21.8665Z" fill="white"/>
<path d="M117.86 22.4032C118.64 23.1392 120.246 23.8753 121.586 23.8753C122.813 23.8753 123.394 23.4515 123.394 22.7823C123.394 22.024 122.457 21.7563 121.229 21.511C119.378 21.1541 116.99 20.708 116.99 18.1416C116.99 16.335 118.573 14.75 121.407 14.75C123.236 14.75 124.688 15.3745 125.736 16.2221L124.621 18.1639C123.974 17.4725 122.747 16.9149 121.43 16.9149C120.404 16.9149 119.735 17.2941 119.735 17.9186C119.735 18.5877 120.582 18.8331 121.787 19.0784C123.638 19.4353 126.115 19.926 126.115 22.6039C126.115 24.5903 124.441 26.0625 121.452 26.0625C119.577 26.0625 117.77 25.4379 116.633 24.3883L117.86 22.4032Z" fill="white"/>
<path d="M128.112 22.4032C128.893 23.1392 130.499 23.8753 131.838 23.8753C133.065 23.8753 133.646 23.4515 133.646 22.7823C133.646 22.024 132.71 21.7563 131.482 21.511C129.63 21.1541 127.242 20.708 127.242 18.1416C127.242 16.335 128.826 14.75 131.66 14.75C133.489 14.75 134.94 15.3745 135.988 16.2221L134.873 18.1639C134.226 17.4725 133 16.9149 131.682 16.9149C130.656 16.9149 129.987 17.2941 129.987 17.9186C129.987 18.5877 130.835 18.8331 132.04 19.0784C133.892 19.4353 136.369 19.926 136.369 22.6039C136.369 24.5903 134.695 26.0625 131.706 26.0625C129.831 26.0625 128.024 25.4379 126.887 24.3883L128.113 22.4032H128.112Z" fill="white"/>
<path d="M140.869 29.8989H138.035V15.0177H140.869V16.3782C141.694 15.3299 142.878 14.75 144.194 14.75C146.961 14.75 148.969 16.8034 148.969 20.3957C148.969 23.9881 146.96 26.0625 144.194 26.0625C142.923 26.0625 141.739 25.5271 140.869 24.4119V29.9002V29.8989ZM143.302 17.2704C142.387 17.2704 141.338 17.8058 140.869 18.4972V22.3126C141.338 22.9818 142.386 23.5394 143.302 23.5394C144.93 23.5394 146.024 22.268 146.024 20.3931C146.024 18.5182 144.931 17.2691 143.302 17.2691V17.2704Z" fill="white"/>
<path d="M150.096 20.3957C150.096 17.3387 152.237 14.75 155.785 14.75C159.333 14.75 161.496 17.3387 161.496 20.3957C161.496 23.4528 159.354 26.0625 155.785 26.0625C152.216 26.0625 150.096 23.4738 150.096 20.3957ZM158.552 20.3957C158.552 18.7216 157.548 17.2718 155.785 17.2718C154.021 17.2718 153.04 18.7216 153.04 20.3957C153.04 22.0699 154.021 23.542 155.785 23.542C157.548 23.542 158.552 22.0922 158.552 20.3957Z" fill="white"/>
<path d="M163.203 25.7959V15.0201H166.037V16.4922C166.796 15.5331 168.135 14.7734 169.473 14.7734V17.5405C169.273 17.4959 169.005 17.4736 168.693 17.4736C167.756 17.4736 166.506 17.9866 166.037 18.6781V25.7959H163.203Z" fill="white"/>
<path d="M171.919 23.1229V17.5008H170.133V15.0237H171.919V12.0781H174.775V15.0237H176.962V17.5008H174.775V22.3646C174.775 23.0337 175.132 23.5467 175.756 23.5467C176.18 23.5467 176.582 23.3906 176.738 23.2344L177.34 25.377C176.916 25.7562 176.158 26.0685 174.974 26.0685C172.989 26.0685 171.917 25.0424 171.917 23.1229H171.919Z" fill="white"/>
<path d="M20.5294 40.4819C20.1083 40.4819 19.6871 40.3652 19.3079 40.1316L8.77734 33.6488V32.6608L22.8662 27.0859V38.1439C22.8662 39.0006 22.4201 39.7616 21.6709 40.1802C21.3114 40.3809 20.9204 40.4819 20.5308 40.4819H20.5294ZM11.2598 33.351L20.1227 38.8064C20.473 39.0216 20.7905 38.8891 20.9113 38.8222C21.0306 38.7553 21.3101 38.5545 21.3101 38.1439V29.3755L11.2611 33.3523L11.2598 33.351Z" fill="white"/>
<path d="M8.77866 34.3361V18.0419H9.55671C12.354 18.0419 14.9007 16.6183 16.3728 14.2343C17.1483 12.9774 17.5589 11.5275 17.5589 10.0397C17.5589 9.01498 17.3687 8.01914 16.9921 7.07709L16.7022 6.35284L26.6358 2.42195C27.3548 2.13724 28.1669 2.22646 28.8059 2.66206C29.4449 3.09634 29.8267 3.81797 29.8267 4.59076V24.421C29.8267 25.3854 29.2481 26.2369 28.3519 26.5911L8.77734 34.3348L8.77866 34.3361ZM10.3348 19.5664V32.0479L27.7812 25.1453C28.0803 25.0272 28.2732 24.7438 28.2732 24.4223V4.59076C28.2732 4.32967 28.1499 4.09612 27.9334 3.94917C27.7169 3.80222 27.4532 3.77336 27.2091 3.86914L18.6965 7.23716C18.9747 8.14116 19.115 9.08058 19.115 10.0397C19.115 11.8162 18.6243 13.5481 17.6967 15.0504C16.0776 17.6745 13.3656 19.3237 10.3348 19.5651V19.5664Z" fill="white"/>
<path d="M10.3338 19.5969H9.55572C4.28649 19.5969 0 15.3092 0 10.04C0 4.77083 4.28649 0.484375 9.55572 0.484375C13.4906 0.484375 16.9767 2.84606 18.4357 6.5001L18.7244 7.22435L10.3338 10.5451V19.5969ZM9.55572 2.04046C5.14458 2.04046 1.5561 5.62891 1.5561 10.04C1.5561 14.19 4.72997 17.6118 8.77767 18.0041V9.48763L16.6671 6.36627C15.3025 3.71463 12.5892 2.04046 9.55572 2.04046Z" fill="white"/>
<path d="M9.55539 19.5984H8.77734V9.48909L18.1467 5.78125L18.4341 6.50156C18.8841 7.6273 19.1111 8.81864 19.1111 10.0415C19.1111 11.818 18.6204 13.5499 17.6928 15.0522C15.9372 17.898 12.8946 19.5984 9.55408 19.5984H9.55539ZM10.3334 10.5466V18.0056C12.8198 17.7681 15.0385 16.3957 16.3715 14.2348C17.147 12.9778 17.5576 11.528 17.5576 10.0401C17.5576 9.27785 17.4527 8.5313 17.2427 7.81098L10.3334 10.5453V10.5466Z" fill="white"/>
</svg>
