<svg width="141" height="36" viewBox="0 0 141 36" fill="none" xmlns="http://www.w3.org/2000/svg">
<path d="M10.5078 27.0043L17.7176 31.4281C17.8843 31.5291 18.0749 31.5841 18.2698 31.5875C18.4647 31.5908 18.657 31.5422 18.827 31.4469C18.9971 31.3515 19.1387 31.2127 19.2375 31.0446C19.3363 30.8765 19.3887 30.6853 19.3893 30.4903V23.4844L10.5554 26.9839L10.5078 27.0043Z" fill="#4D36BF"/>
<path d="M24.2968 6.76588V20.7913C24.2981 21.0096 24.2341 21.2234 24.113 21.405C23.9919 21.5867 23.8193 21.7279 23.6172 21.8106L19.3905 23.4823L10.5566 26.9954V16.8025C11.5706 16.8023 12.5691 16.5538 13.4649 16.0788C14.3607 15.6038 15.1266 14.9166 15.6957 14.0774C16.2648 13.2382 16.6198 12.2725 16.7296 11.2645C16.8394 10.2565 16.7008 9.2369 16.3259 8.29482L22.7882 5.77377C22.9528 5.70804 23.1309 5.68305 23.3073 5.70092C23.4837 5.71879 23.6531 5.77898 23.8012 5.87639C23.9493 5.9738 24.0717 6.10554 24.158 6.2604C24.2443 6.41526 24.2919 6.58867 24.2968 6.76588Z" fill="#6648FF"/>
<path d="M16.2784 8.32033C15.8611 7.27189 15.166 6.35694 14.2679 5.67378C13.3697 4.99061 12.3024 4.56505 11.1806 4.44281C10.0588 4.32056 8.9249 4.50625 7.90069 4.97992C6.87647 5.4536 6.00065 6.19737 5.36732 7.13132C4.73399 8.06528 4.36707 9.15414 4.30598 10.2809C4.2449 11.4077 4.49195 12.5299 5.0206 13.5268C5.54926 14.5238 6.33953 15.3578 7.30654 15.9395C8.27355 16.5211 9.38074 16.8283 10.5092 16.828V10.6035L16.2784 8.32033Z" fill="#F9B019"/>
<path d="M24.2968 6.76588V20.7913C24.2981 21.0096 24.2341 21.2234 24.113 21.405C23.9919 21.5867 23.8193 21.7279 23.6172 21.8106L19.3905 23.4823L10.5566 26.9954V16.8025C11.5706 16.8023 12.5691 16.5538 13.4649 16.0788C14.3607 15.6038 15.1266 14.9166 15.6957 14.0774C16.2648 13.2382 16.6198 12.2725 16.7296 11.2645C16.8394 10.2565 16.7008 9.2369 16.3259 8.29482L22.7882 5.77377C22.9528 5.70804 23.1309 5.68305 23.3073 5.70092C23.4837 5.71879 23.6531 5.77898 23.8012 5.87639C23.9493 5.9738 24.0717 6.10554 24.158 6.2604C24.2443 6.41526 24.2919 6.58867 24.2968 6.76588Z" fill="#6648FF"/>
<path d="M16.2784 8.32033C15.8611 7.27189 15.166 6.35694 14.2679 5.67378C13.3697 4.99061 12.3024 4.56505 11.1806 4.44281C10.0588 4.32056 8.9249 4.50625 7.90069 4.97992C6.87647 5.4536 6.00065 6.19737 5.36732 7.13132C4.73399 8.06528 4.36707 9.15414 4.30598 10.2809C4.2449 11.4077 4.49195 12.5299 5.0206 13.5268C5.54926 14.5238 6.33953 15.3578 7.30654 15.9395C8.27355 16.5211 9.38074 16.8283 10.5092 16.828V10.6035L16.2784 8.32033Z" fill="#F9B019"/>
<path d="M16.7187 10.6239C16.7151 12.2694 16.0594 13.8464 14.8952 15.0093C13.731 16.1722 12.1533 16.8262 10.5078 16.828V10.6035L16.277 8.32031C16.57 9.05292 16.72 9.83488 16.7187 10.6239Z" fill="#59EDF7"/>
<path d="M24.2968 6.76588V20.7913C24.2981 21.0096 24.2341 21.2234 24.113 21.405C23.9919 21.5867 23.8193 21.7279 23.6172 21.8106L19.3905 23.4823L10.5566 26.9954V16.8025C11.5706 16.8023 12.5691 16.5538 13.4649 16.0788C14.3607 15.6038 15.1266 14.9166 15.6957 14.0774C16.2648 13.2382 16.6198 12.2725 16.7296 11.2645C16.8394 10.2565 16.7008 9.2369 16.3259 8.29482L22.7882 5.77377C22.9528 5.70804 23.1309 5.68305 23.3073 5.70092C23.4837 5.71879 23.6531 5.77898 23.8012 5.87639C23.9493 5.9738 24.0717 6.10554 24.158 6.2604C24.2443 6.41526 24.2919 6.58867 24.2968 6.76588Z" fill="#6648FF"/>
<path d="M16.2784 8.32033C15.8611 7.27189 15.166 6.35694 14.2679 5.67378C13.3697 4.99061 12.3024 4.56505 11.1806 4.44281C10.0588 4.32056 8.9249 4.50625 7.90069 4.97992C6.87647 5.4536 6.00065 6.19737 5.36732 7.13132C4.73399 8.06528 4.36707 9.15414 4.30598 10.2809C4.2449 11.4077 4.49195 12.5299 5.0206 13.5268C5.54926 14.5238 6.33953 15.3578 7.30654 15.9395C8.27355 16.5211 9.38074 16.8283 10.5092 16.828V10.6035L16.2784 8.32033Z" fill="#F9B019"/>
<path d="M16.7187 10.6239C16.7151 12.2694 16.0594 13.8464 14.8952 15.0093C13.731 16.1722 12.1533 16.8262 10.5078 16.828V10.6035L16.277 8.32031C16.57 9.05292 16.72 9.83488 16.7187 10.6239Z" fill="#59EDF7"/>
<path d="M31.4072 22.5V11.2788H39.3479V13.3312H33.7962V15.7706H39.2301V17.8231H33.7962V20.4307H39.3479V22.5H31.4072ZM41.2154 22.5V11.2788H45.64C49.1561 11.2788 51.5955 13.5163 51.5955 16.8978C51.5955 20.2793 49.1561 22.5 45.64 22.5H41.2154ZM43.6044 20.3971H45.64C47.8607 20.3971 49.1561 18.7988 49.1561 16.8978C49.1561 14.9126 47.9448 13.3817 45.64 13.3817H43.6044V20.3971ZM53.2908 18.025V11.2788H55.7134V17.9408C55.7134 19.5054 56.5714 20.5821 58.3211 20.5821C60.0371 20.5821 60.895 19.5054 60.895 17.9408V11.2788H63.3176V18.0081C63.3176 20.8008 61.7194 22.7019 58.3211 22.7019C54.8891 22.7019 53.2908 20.784 53.2908 18.025ZM69.835 22.5V11.2788H75.0839C77.5233 11.2788 78.8524 12.9275 78.8524 14.8958C78.8524 16.8473 77.5065 18.4792 75.0839 18.4792H72.2239V22.5H69.835ZM76.413 14.879C76.413 13.9537 75.7064 13.3312 74.7643 13.3312H72.2239V16.4267H74.7643C75.7064 16.4267 76.413 15.8211 76.413 14.879ZM84.833 22.5V21.6588C84.2778 22.3149 83.3189 22.7019 82.259 22.7019C80.9636 22.7019 79.4326 21.8271 79.4326 20.0101C79.4326 18.1091 80.9636 17.4193 82.259 17.4193C83.3357 17.4193 84.2946 17.7558 84.833 18.4119V17.2847C84.833 16.4604 84.1264 15.922 83.0497 15.922C82.1749 15.922 81.3673 16.2417 80.6776 16.881L79.8701 15.451C80.8626 14.5762 82.1412 14.1724 83.4198 14.1724C85.2704 14.1724 86.9696 14.9126 86.9696 17.2511V22.5H84.833ZM84.833 20.5485V19.5391C84.4797 19.068 83.8067 18.8325 83.117 18.8325C82.2758 18.8325 81.5861 19.2867 81.5861 20.0606C81.5861 20.8177 82.2758 21.2551 83.117 21.2551C83.8067 21.2551 84.4797 21.0195 84.833 20.5485ZM88.3822 21.4401L89.3075 19.9428C89.8963 20.498 91.1076 21.0532 92.117 21.0532C93.0423 21.0532 93.4797 20.7335 93.4797 20.2288C93.4797 19.6568 92.7731 19.455 91.8478 19.2699C90.4515 19.0007 88.6514 18.6643 88.6514 16.7296C88.6514 15.3669 89.8458 14.1724 91.9824 14.1724C93.3619 14.1724 94.4555 14.6434 95.2462 15.2827L94.405 16.7464C93.9171 16.2249 92.9918 15.8043 91.9992 15.8043C91.2254 15.8043 90.7207 16.0903 90.7207 16.5613C90.7207 17.066 91.3599 17.2511 92.2684 17.4361C93.6648 17.7053 95.5322 18.0754 95.5322 20.0942C95.5322 21.5915 94.2704 22.7019 92.0161 22.7019C90.6029 22.7019 89.2402 22.2308 88.3822 21.4401ZM96.3996 21.4401L97.3249 19.9428C97.9137 20.498 99.125 21.0532 100.134 21.0532C101.06 21.0532 101.497 20.7335 101.497 20.2288C101.497 19.6568 100.791 19.455 99.8652 19.2699C98.4689 19.0007 96.6688 18.6643 96.6688 16.7296C96.6688 15.3669 97.8633 14.1724 99.9998 14.1724C101.379 14.1724 102.473 14.6434 103.264 15.2827L102.422 16.7464C101.935 16.2249 101.009 15.8043 100.017 15.8043C99.2428 15.8043 98.7381 16.0903 98.7381 16.5613C98.7381 17.066 99.3774 17.2511 100.286 17.4361C101.682 17.7053 103.55 18.0754 103.55 20.0942C103.55 21.5915 102.288 22.7019 100.033 22.7019C98.6203 22.7019 97.2576 22.2308 96.3996 21.4401ZM107.26 25.5955H105.124V14.3743H107.26V15.4005C107.883 14.6098 108.774 14.1724 109.767 14.1724C111.853 14.1724 113.367 15.7201 113.367 18.4287C113.367 21.1373 111.853 22.7019 109.767 22.7019C108.808 22.7019 107.916 22.2981 107.26 21.4569V25.5955ZM111.146 18.4287C111.146 17.0324 110.322 16.0734 109.094 16.0734C108.404 16.0734 107.613 16.4772 107.26 16.9987V19.8755C107.613 20.3802 108.404 20.8008 109.094 20.8008C110.322 20.8008 111.146 19.8419 111.146 18.4287ZM118.733 22.7019C116.058 22.7019 114.443 20.7504 114.443 18.4287C114.443 16.1239 116.058 14.1724 118.733 14.1724C121.425 14.1724 123.04 16.1239 123.04 18.4287C123.04 20.7504 121.425 22.7019 118.733 22.7019ZM118.733 20.8008C120.062 20.8008 120.819 19.7073 120.819 18.4287C120.819 17.167 120.062 16.0734 118.733 16.0734C117.404 16.0734 116.664 17.167 116.664 18.4287C116.664 19.7073 117.404 20.8008 118.733 20.8008ZM124.625 22.5V14.3743H126.762V15.4846C127.334 14.7612 128.343 14.1892 129.352 14.1892V16.2753C129.201 16.2417 128.999 16.2249 128.764 16.2249C128.057 16.2249 127.115 16.6118 126.762 17.1333V22.5H124.625ZM133.413 22.7019C131.915 22.7019 131.108 21.928 131.108 20.4812V16.2417H129.762V14.3743H131.108V12.1536H133.261V14.3743H134.91V16.2417H133.261V19.9092C133.261 20.4139 133.531 20.8008 134.002 20.8008C134.321 20.8008 134.624 20.6831 134.742 20.5653L135.196 22.1804C134.876 22.4664 134.304 22.7019 133.413 22.7019Z" fill="#231F20"/>
</svg>
