<svg width="21" height="24" viewBox="0 0 21 24" fill="none" xmlns="http://www.w3.org/2000/svg">
<path d="M18.3848 5.13274C18.2213 5.04902 18.0621 4.95725 17.9079 4.85776C17.4593 4.564 17.048 4.21786 16.6828 3.82681C15.7692 2.79136 15.428 1.74091 15.3023 1.00545H15.3073C15.2024 0.39498 15.2458 0 15.2523 0H11.0911V15.9382C11.0911 16.1522 11.0911 16.3637 11.082 16.5727C11.082 16.5987 11.0795 16.6227 11.078 16.6507C11.078 16.6622 11.078 16.6742 11.0755 16.6862C11.0755 16.6892 11.0755 16.6922 11.0755 16.6952C11.0316 17.267 10.8465 17.8194 10.5365 18.3038C10.2265 18.7882 9.80112 19.1897 9.2977 19.473C8.77302 19.7687 8.1796 19.9238 7.57597 19.923C5.63719 19.923 4.06588 18.3571 4.06588 16.4232C4.06588 14.4893 5.63719 12.9234 7.57597 12.9234C7.94297 12.923 8.30771 12.9802 8.65665 13.0928L8.6617 8.89606C7.6024 8.76052 6.52623 8.84391 5.50109 9.14096C4.47596 9.43802 3.52409 9.94229 2.70556 10.622C1.98833 11.2392 1.38535 11.9758 0.923763 12.7984C0.748108 13.0983 0.0853605 14.3038 0.00510404 16.2602C-0.0453717 17.3706 0.291302 18.5211 0.451815 18.9966V19.0066C0.552766 19.2865 0.943954 20.242 1.58146 21.0474C2.09553 21.6936 2.70288 22.2611 3.38395 22.7319V22.7219L3.39405 22.7319C5.40854 24.0878 7.64209 23.9988 7.64209 23.9988C8.02873 23.9833 9.32394 23.9988 10.7948 23.3083C12.4262 22.5429 13.3549 21.4024 13.3549 21.4024C13.9483 20.721 14.4201 19.9444 14.7501 19.106C15.1266 18.1256 15.2523 16.9497 15.2523 16.4797V8.0241C15.3028 8.0541 15.9751 8.49458 15.9751 8.49458C15.9751 8.49458 16.9438 9.10955 18.455 9.51003C19.5392 9.79501 21 9.85501 21 9.85501V5.76321C20.4882 5.81821 19.4489 5.65822 18.3848 5.13274Z" fill="#64748B"/>
</svg>
