<svg width="40" height="40" viewBox="0 0 40 40" fill="none" xmlns="http://www.w3.org/2000/svg">
<g clip-path="url(#clip0_2521_50867)">
<path d="M33.8473 32.7276C33.2648 32.7217 32.7023 32.942 32.2764 33.3428C31.8505 33.7437 31.594 34.2945 31.5598 34.8809C31.5392 35.2421 31.4338 35.5931 31.2522 35.905C31.0706 36.217 30.818 36.4809 30.5153 36.675C30.2127 36.8691 29.8685 36.9879 29.5114 37.0215C29.1542 37.055 28.7942 37.0025 28.4612 36.8682C27.921 36.6508 27.3187 36.6509 26.7786 36.8685C26.2385 37.0861 25.8019 37.5046 25.559 38.0375C25.4104 38.3673 25.1861 38.6568 24.9046 38.8818C24.623 39.1069 24.2924 39.261 23.94 39.3316C23.5876 39.4022 23.2236 39.3871 22.8782 39.2876C22.5327 39.1881 22.2158 39.0071 21.9535 38.7596C21.5278 38.3596 20.9656 38.1405 20.3839 38.1476C19.8021 38.1547 19.2454 38.3876 18.8295 38.7979C18.5729 39.0508 18.2602 39.2386 17.9174 39.3457C17.5746 39.4527 17.2115 39.476 16.858 39.4136C16.5045 39.3512 16.1708 39.2048 15.8845 38.9866C15.5981 38.7685 15.3674 38.4848 15.2113 38.1589C14.9582 37.6301 14.5126 37.2201 13.9673 37.0143C13.4221 36.8084 12.819 36.8224 12.2838 37.0535C11.9525 37.2007 11.591 37.2656 11.2297 37.2428C10.8684 37.2199 10.5178 37.11 10.2074 36.9222C9.89699 36.7344 9.6358 36.4742 9.44579 36.1635C9.25578 35.8527 9.14249 35.5006 9.11544 35.1365C9.07158 34.5507 8.80402 34.0048 8.36908 33.6139C7.93413 33.223 7.36574 33.0175 6.78356 33.0407C6.42484 33.0524 6.06847 32.9781 5.74375 32.824C5.41902 32.6698 5.1352 32.4401 4.91562 32.1538C4.69604 31.8676 4.54697 31.5328 4.48064 31.1771C4.4143 30.8214 4.4326 30.4549 4.53405 30.1078C4.70167 29.545 4.64687 28.9387 4.3811 28.4158C4.11534 27.8929 3.65922 27.494 3.10831 27.3026C2.76997 27.1827 2.46467 26.9835 2.21745 26.7215C1.97022 26.4595 1.78814 26.1421 1.6861 25.7954C1.58407 25.4487 1.56501 25.0826 1.63049 24.727C1.69596 24.3714 1.8441 24.0366 2.06276 23.7499C2.4147 23.2907 2.5804 22.7138 2.52627 22.136C2.47215 21.5582 2.20227 21.0227 1.77128 20.6381C1.49759 20.4037 1.28315 20.107 1.1457 19.7725C1.00826 19.438 0.951728 19.0753 0.98083 18.7144C1.00993 18.3535 1.12382 18.0048 1.31305 17.6971C1.50229 17.3894 1.76145 17.1315 2.06911 16.9448C2.56721 16.6412 2.93011 16.1557 3.08235 15.5892C3.23459 15.0227 3.16446 14.4189 2.88654 13.9032C2.71671 13.5846 2.62426 13.2299 2.61676 12.8682C2.60926 12.5065 2.68693 12.1482 2.8434 11.8226C2.99986 11.4971 3.23065 11.2136 3.51684 10.9955C3.80302 10.7773 4.13644 10.6307 4.48971 10.5677C5.06723 10.4672 5.58352 10.1446 5.92984 9.66783C6.27616 9.19108 6.42547 8.59739 6.34633 8.01183C6.29977 7.6527 6.33892 7.28756 6.46053 6.94677C6.58213 6.60597 6.78266 6.29939 7.04546 6.05251C7.30826 5.80563 7.62572 5.6256 7.97143 5.52739C8.31714 5.42918 8.68111 5.41563 9.03306 5.48786C9.6041 5.60184 10.1967 5.48945 10.6877 5.17407C11.1787 4.85869 11.5302 4.36461 11.6691 3.79457C11.7557 3.44369 11.9238 3.11861 12.1596 2.84612C12.3953 2.57364 12.6918 2.36155 13.0248 2.22736C13.3578 2.09318 13.7176 2.04074 14.0746 2.07437C14.4317 2.10799 14.7756 2.22671 15.0782 2.42075C15.5729 2.73216 16.1675 2.83953 16.7386 2.72054C17.3097 2.60156 17.8134 2.26536 18.1451 1.78177C18.3511 1.48499 18.6241 1.24193 18.9417 1.07268C19.2592 0.903441 19.6122 0.812887 19.9714 0.808516C20.3306 0.804145 20.6856 0.886083 21.0071 1.04755C21.3287 1.20901 21.6074 1.44537 21.8204 1.73705C22.1667 2.20858 22.6794 2.52788 23.2526 2.62897C23.8258 2.73006 24.4155 2.60519 24.9 2.28017C25.197 2.07876 25.5372 1.95129 25.8926 1.90825C26.2479 1.8652 26.6084 1.90779 26.9442 2.03254C27.2801 2.15729 27.5818 2.36064 27.8246 2.62585C28.0674 2.89106 28.2443 3.21056 28.3408 3.55813C28.4945 4.12353 28.8577 4.60782 29.3553 4.91103C29.8529 5.21424 30.447 5.31322 31.0148 5.18754C31.3652 5.10989 31.7289 5.11713 32.0759 5.20868C32.423 5.30023 32.7436 5.47348 33.0114 5.7142C33.2792 5.95492 33.4865 6.25626 33.6164 6.59346C33.7463 6.93067 33.795 7.29412 33.7586 7.654C33.698 8.23597 33.8616 8.81918 34.2154 9.283C34.5692 9.74682 35.0862 10.0558 35.6596 10.146C36.0143 10.2003 36.3512 10.339 36.6423 10.5504C36.9334 10.7619 37.1705 11.0402 37.3339 11.3623C37.4973 11.6844 37.5824 12.0411 37.5822 12.4029C37.5819 12.7647 37.4963 13.1213 37.3325 13.4432C37.0668 13.966 37.0114 14.5721 37.1778 15.1351C37.3443 15.6982 37.7197 16.1747 38.2259 16.4655C38.5379 16.6452 38.803 16.8971 38.9992 17.2006C39.1954 17.5041 39.3172 17.8503 39.3543 18.2106C39.3915 18.5709 39.343 18.935 39.2129 19.2727C39.0828 19.6104 38.8748 19.9119 38.6061 20.1525C38.1709 20.5416 37.9016 21.0852 37.8544 21.6698C37.8071 22.2544 37.9857 22.8348 38.3527 23.2898C38.5783 23.5713 38.7345 23.9027 38.8084 24.2569C38.8823 24.6111 38.8718 24.9779 38.7778 25.3272C38.6838 25.6764 38.5089 25.9983 38.2676 26.2661C38.0262 26.534 37.7253 26.7403 37.3895 26.8681C36.844 27.0734 36.398 27.4828 36.1442 28.0112C35.8904 28.5396 35.8485 29.1464 36.0271 29.7052C36.1453 30.052 36.1789 30.4224 36.125 30.7851C36.0711 31.1477 35.9312 31.4919 35.7173 31.7885C35.5034 32.0851 35.2218 32.3253 34.8963 32.4888C34.5707 32.6522 34.2109 32.7342 33.8473 32.7276Z" fill="#6648FF"/>
<path fill-rule="evenodd" clip-rule="evenodd" d="M17.3466 19.8198V29.9285C17.3482 29.9974 17.3761 30.0631 17.4245 30.1119C17.4728 30.1607 17.538 30.1888 17.6064 30.1905H21.3323C21.4012 30.1905 21.4673 30.1629 21.516 30.1137C21.5647 30.0646 21.5921 29.998 21.5921 29.9285V19.6537H24.2915C24.3573 19.6538 24.4206 19.6289 24.4688 19.5838C24.517 19.5388 24.5465 19.4769 24.5513 19.4108L24.8111 16.3182C24.8137 16.2819 24.8089 16.2455 24.7971 16.2111C24.7853 16.1767 24.7667 16.1451 24.7424 16.1182C24.7181 16.0913 24.6886 16.0697 24.6558 16.0546C24.6229 16.0396 24.5874 16.0314 24.5513 16.0307H21.5921V13.8389C21.5921 13.5915 21.6896 13.3542 21.8631 13.1793C22.0366 13.0043 22.2719 12.906 22.5173 12.906H24.583C24.6519 12.906 24.718 12.8784 24.7667 12.8293C24.8154 12.7802 24.8428 12.7135 24.8428 12.644V9.545C24.8428 9.5106 24.8361 9.47652 24.823 9.44473C24.81 9.41295 24.7908 9.38408 24.7667 9.35975C24.7426 9.33543 24.7139 9.31611 24.6824 9.30295C24.6509 9.28978 24.6171 9.28302 24.583 9.28302H21.0725C20.0821 9.28302 19.1321 9.67933 18.4311 10.385C17.7302 11.0906 17.3356 12.0478 17.3339 13.0466V16.0307H15.4773C15.4067 16.0307 15.339 16.0589 15.2891 16.1093C15.2392 16.1596 15.2111 16.2278 15.2111 16.299V19.3917C15.2111 19.4266 15.218 19.4612 15.2315 19.4934C15.2449 19.5257 15.2646 19.5548 15.2894 19.5792C15.3142 19.6036 15.3436 19.6228 15.3759 19.6356C15.4082 19.6484 15.4426 19.6545 15.4773 19.6537H17.3339L17.3466 19.8198Z" fill="white"/>
</g>
<defs>
<clipPath id="clip0_2521_50867">
<rect width="38.4" height="38.6136" fill="white" transform="translate(0.960083 0.835541)"/>
</clipPath>
</defs>
</svg>
