<svg width="39" height="40" viewBox="0 0 39 40" fill="none" xmlns="http://www.w3.org/2000/svg">
<g clip-path="url(#clip0_2521_50864)">
<path d="M19.3319 35.699C27.6435 35.699 34.3814 28.9046 34.3814 20.5232C34.3814 12.1419 27.6435 5.34746 19.3319 5.34746C11.0202 5.34746 4.28235 12.1419 4.28235 20.5232C4.28235 28.9046 11.0202 35.699 19.3319 35.699Z" fill="white"/>
<path d="M33.0064 32.7262C32.4239 32.7202 31.8614 32.9405 31.4355 33.3414C31.0096 33.7423 30.753 34.293 30.7189 34.8795C30.6983 35.2406 30.5929 35.5917 30.4113 35.9036C30.2297 36.2156 29.9771 36.4795 29.6744 36.6736C29.3718 36.8677 29.0276 36.9865 28.6705 37.02C28.3133 37.0536 27.9534 37.0011 27.6203 36.8668C27.0801 36.6494 26.4778 36.6495 25.9377 36.8671C25.3976 37.0847 24.961 37.5032 24.7181 38.0361C24.5695 38.3659 24.3452 38.6554 24.0637 38.8804C23.7821 39.1054 23.4515 39.2596 23.0991 39.3302C22.7467 39.4008 22.3828 39.3857 22.0373 39.2862C21.6919 39.1867 21.3749 39.0057 21.1126 38.7581C20.6869 38.3582 20.1247 38.139 19.543 38.1462C18.9612 38.1533 18.4045 38.3862 17.9886 38.7965C17.732 39.0494 17.4193 39.2372 17.0765 39.3443C16.7337 39.4513 16.3706 39.4746 16.0171 39.4122C15.6636 39.3497 15.3299 39.2034 15.0436 38.9852C14.7573 38.7671 14.5265 38.4833 14.3704 38.1575C14.1173 37.6287 13.6717 37.2187 13.1265 37.0128C12.5812 36.8069 11.9781 36.821 11.4429 37.0521C11.1116 37.1993 10.7501 37.2642 10.3888 37.2414C10.0275 37.2185 9.67695 37.1086 9.36653 36.9208C9.05611 36.733 8.79492 36.4728 8.60491 36.162C8.41489 35.8513 8.3016 35.4992 8.27456 35.1351C8.2307 34.5493 7.96314 34.0034 7.52819 33.6125C7.09325 33.2216 6.52484 33.0161 5.94266 33.0393C5.58394 33.051 5.22759 32.9767 4.90287 32.8225C4.57814 32.6684 4.29432 32.4387 4.07474 32.1524C3.85516 31.8661 3.70609 31.5314 3.63975 31.1757C3.57342 30.82 3.59172 30.4535 3.69317 30.1064C3.86079 29.5436 3.80597 28.9373 3.5402 28.4144C3.27444 27.8915 2.81833 27.4926 2.26742 27.3012C1.92909 27.1812 1.62379 26.9821 1.37657 26.7201C1.12934 26.4581 0.947234 26.1407 0.8452 25.794C0.743167 25.4473 0.724107 25.0812 0.789585 24.7256C0.855062 24.37 1.00322 24.0352 1.22188 23.7485C1.5776 23.2836 1.74245 22.6987 1.6823 22.1147C1.62214 21.5306 1.34158 20.9923 0.898708 20.6111C0.625009 20.3767 0.410577 20.08 0.273128 19.7455C0.135679 19.411 0.079171 19.0483 0.108273 18.6874C0.137374 18.3265 0.251241 17.9778 0.440478 17.6701C0.629715 17.3624 0.888877 17.1045 1.19653 16.9178C1.69463 16.6142 2.05754 16.1287 2.20978 15.5622C2.36202 14.9958 2.29189 14.3919 2.01396 13.8763C1.84414 13.5576 1.75168 13.2029 1.74418 12.8412C1.73668 12.4795 1.81435 12.1212 1.97082 11.7957C2.12729 11.4701 2.35808 11.1866 2.64426 10.9685C2.93045 10.7504 3.26386 10.6038 3.61713 10.5408C4.19465 10.4403 4.71094 10.1176 5.05726 9.64087C5.40358 9.16412 5.55289 8.57043 5.47376 7.98487C5.42719 7.62574 5.46635 7.26058 5.58795 6.91979C5.70955 6.579 5.91008 6.27241 6.17288 6.02553C6.43568 5.77865 6.75314 5.59862 7.09886 5.50041C7.44457 5.4022 7.80853 5.38865 8.16049 5.46089C8.73152 5.57486 9.32417 5.46247 9.81513 5.14709C10.3061 4.83171 10.6576 4.33763 10.7965 3.76759C10.8832 3.41672 11.0513 3.09163 11.287 2.81915C11.5227 2.54666 11.8193 2.33459 12.1522 2.20041C12.4852 2.06622 12.845 2.01379 13.2021 2.04741C13.5591 2.08103 13.9031 2.19975 14.2056 2.39379C14.7003 2.7052 15.2949 2.81255 15.866 2.69356C16.4371 2.57458 16.9408 2.23841 17.2726 1.75481C17.4785 1.45803 17.7515 1.21495 18.0691 1.04571C18.3867 0.876463 18.7396 0.785909 19.0988 0.781538C19.458 0.777167 19.813 0.859105 20.1346 1.02057C20.4561 1.18204 20.7349 1.41839 20.9478 1.71008C21.2941 2.1816 21.8069 2.50092 22.38 2.60201C22.9532 2.7031 23.543 2.57823 24.0274 2.25321C24.3244 2.0518 24.6646 1.92432 25.02 1.88127C25.3754 1.83822 25.7358 1.88083 26.0717 2.00558C26.4075 2.13033 26.7093 2.33366 26.952 2.59887C27.1948 2.86408 27.3717 3.1836 27.4682 3.53117C27.622 4.09657 27.9851 4.58085 28.4827 4.88405C28.9803 5.18726 29.5744 5.28625 30.1423 5.16056C30.4926 5.08291 30.8563 5.09015 31.2034 5.1817C31.5504 5.27325 31.871 5.4465 32.1388 5.68722C32.4066 5.92794 32.6139 6.22928 32.7438 6.56648C32.8737 6.90369 32.9225 7.26716 32.886 7.62704C32.8255 8.20901 32.989 8.7922 33.3428 9.25602C33.6966 9.71984 34.2137 10.0288 34.787 10.1191C35.1418 10.1734 35.4786 10.312 35.7697 10.5235C36.0608 10.735 36.2979 11.0132 36.4613 11.3353C36.6247 11.6574 36.7099 12.0141 36.7096 12.3759C36.7094 12.7378 36.6238 13.0943 36.4599 13.4162C36.1942 13.9391 36.1388 14.5451 36.3052 15.1081C36.4717 15.6712 36.8471 16.1477 37.3534 16.4386C37.6653 16.6182 37.9304 16.8702 38.1266 17.1736C38.3229 17.4771 38.4446 17.8233 38.4818 18.1836C38.5189 18.544 38.4704 18.908 38.3403 19.2457C38.2102 19.5834 38.0022 19.885 37.7336 20.1255C37.2997 20.5155 37.0314 21.0589 36.9842 21.643C36.937 22.2272 37.1146 22.8072 37.4801 23.2629C37.7057 23.5443 37.8619 23.8758 37.9358 24.2299C38.0097 24.5841 37.9992 24.9509 37.9052 25.3002C37.8112 25.6495 37.6363 25.9713 37.395 26.2392C37.1537 26.5071 36.8527 26.7134 36.5169 26.8412C35.9714 27.0464 35.5254 27.4558 35.2716 27.9842C35.0179 28.5127 34.9759 29.1194 35.1545 29.6782C35.2769 30.0239 35.3147 30.3942 35.2649 30.7578C35.215 31.1213 35.0788 31.4674 34.868 31.7665C34.6571 32.0657 34.3778 32.3092 34.0537 32.4762C33.7297 32.6433 33.3704 32.729 33.0064 32.7262ZM25.1427 13.0264C24.892 13.0264 24.647 13.1014 24.4386 13.2418C24.2302 13.3822 24.0677 13.5818 23.9718 13.8153C23.8759 14.0488 23.8508 14.3058 23.8997 14.5537C23.9486 14.8016 24.0693 15.0293 24.2465 15.208C24.4238 15.3868 24.6496 15.5085 24.8954 15.5578C25.1413 15.6071 25.3961 15.5818 25.6276 15.485C25.8592 15.3883 26.0572 15.2245 26.1964 15.0144C26.3357 14.8042 26.41 14.5571 26.41 14.3044C26.41 13.9654 26.2765 13.6404 26.0388 13.4007C25.8011 13.161 25.4788 13.0264 25.1427 13.0264ZM19.4967 14.675C18.4402 14.675 17.4074 14.9909 16.529 15.5828C15.6505 16.1747 14.9659 17.016 14.5616 18.0002C14.1573 18.9845 14.0515 20.0675 14.2576 21.1124C14.4637 22.1573 14.9725 23.1172 15.7195 23.8705C16.4666 24.6238 17.4184 25.1368 18.4546 25.3447C19.4908 25.5525 20.5649 25.4459 21.5409 25.0382C22.517 24.6305 23.3513 23.94 23.9383 23.0542C24.5252 22.1684 24.8385 21.127 24.8385 20.0616C24.8368 18.6335 24.2735 17.2644 23.2721 16.2545C22.2707 15.2447 20.9129 14.6767 19.4967 14.675ZM19.4967 23.5057C18.8197 23.5057 18.1579 23.3031 17.595 22.9237C17.0322 22.5443 16.5936 22.005 16.3348 21.3742C16.076 20.7433 16.0086 20.0492 16.1412 19.3797C16.2737 18.7102 16.6002 18.0954 17.0794 17.6131C17.5586 17.1308 18.1689 16.8026 18.8331 16.6702C19.4973 16.5378 20.1854 16.607 20.8106 16.8692C21.4357 17.1313 21.9697 17.5746 22.3449 18.1429C22.7202 18.7111 22.9198 19.3789 22.9185 20.0616C22.9168 20.9756 22.5556 21.8516 21.9141 22.4973C21.2725 23.143 20.4031 23.5057 19.4967 23.5057ZM30.269 15.5823C30.269 13.8402 29.5827 12.1694 28.3611 10.9376C27.1395 9.70568 25.4826 9.01361 23.7549 9.01361H15.1561C13.4285 9.01361 11.7716 9.70568 10.55 10.9376C9.32838 12.1694 8.64208 13.8402 8.64208 15.5823V24.2533C8.64208 25.9954 9.32838 27.6662 10.55 28.8981C11.7716 30.1299 13.4285 30.822 15.1561 30.822H23.7549C25.4826 30.822 27.1395 30.1299 28.3611 28.8981C29.5827 27.6662 30.269 25.9954 30.269 24.2533V15.5823ZM28.2286 24.2533C28.2286 25.4497 27.7573 26.5972 26.9183 27.4432C26.0793 28.2892 24.9414 28.7645 23.7549 28.7645H15.1561C13.9696 28.7645 12.8318 28.2892 11.9928 27.4432C11.1538 26.5972 10.6825 25.4497 10.6825 24.2533V15.5823C10.6825 14.3859 11.1538 13.2385 11.9928 12.3924C12.8318 11.5464 13.9696 11.0711 15.1561 11.0711H23.7549C24.9414 11.0711 26.0793 11.5464 26.9183 12.3924C27.7573 13.2385 28.2286 14.3859 28.2286 15.5823V24.2533Z" fill="#6648FF"/>
</g>
<defs>
<clipPath id="clip0_2521_50864">
<rect width="38.4" height="38.6136" fill="white" transform="translate(0.120056 0.835541)"/>
</clipPath>
</defs>
</svg>
