<svg width="47" height="48" viewBox="0 0 47 48" fill="none" xmlns="http://www.w3.org/2000/svg">
<g clip-path="url(#clip0_2521_50878)" filter="url(#filter0_d_2521_50878)">
<path d="M37.3664 32.7292C36.7839 32.7232 36.2214 32.9436 35.7955 33.3444C35.3696 33.7453 35.1131 34.2961 35.0789 34.8825C35.0583 35.2437 34.9529 35.5947 34.7713 35.9066C34.5897 36.2185 34.3371 36.4825 34.0345 36.6766C33.7318 36.8707 33.3876 36.9895 33.0305 37.0231C32.6733 37.0566 32.3133 37.0041 31.9803 36.8698C31.4401 36.6523 30.8378 36.6525 30.2977 36.8701C29.7576 37.0877 29.321 37.5062 29.0781 38.0391C28.9295 38.3689 28.7052 38.6583 28.4237 38.8834C28.1421 39.1084 27.8115 39.2626 27.4591 39.3332C27.1067 39.4037 26.7427 39.3886 26.3973 39.2892C26.0518 39.1897 25.7349 39.0087 25.4726 38.7611C25.0469 38.3612 24.4847 38.142 23.903 38.1492C23.3212 38.1563 22.7645 38.3892 22.3486 38.7995C22.092 39.0524 21.7793 39.2402 21.4365 39.3472C21.0937 39.4543 20.7306 39.4776 20.3771 39.4151C20.0236 39.3527 19.6899 39.2064 19.4036 38.9882C19.1172 38.77 18.8865 38.4864 18.7304 38.1605C18.4773 37.6317 18.0317 37.2217 17.4864 37.0158C16.9412 36.8099 16.3381 36.824 15.8029 37.055C15.4716 37.2023 15.1101 37.2672 14.7488 37.2444C14.3875 37.2215 14.0369 37.1116 13.7265 36.9238C13.4161 36.736 13.1549 36.4757 12.9649 36.165C12.7749 35.8543 12.6616 35.5021 12.6345 35.1381C12.5907 34.5522 12.3231 34.0064 11.8882 33.6155C11.4532 33.2246 10.8848 33.0191 10.3027 33.0423C9.94394 33.054 9.58757 32.9797 9.26285 32.8255C8.93813 32.6714 8.65431 32.4417 8.43473 32.1554C8.21515 31.8691 8.06607 31.5344 7.99974 31.1787C7.93341 30.823 7.9517 30.4565 8.05315 30.1093C8.22077 29.5466 8.16598 28.9403 7.90021 28.4174C7.63444 27.8945 7.17832 27.4956 6.62741 27.3042C6.28908 27.1843 5.98378 26.9851 5.73655 26.7231C5.48933 26.4611 5.30724 26.1437 5.20521 25.797C5.10317 25.4503 5.08411 25.0842 5.14959 24.7286C5.21507 24.373 5.3632 24.0381 5.58187 23.7515C5.93759 23.2866 6.10244 22.7016 6.04228 22.1176C5.98213 21.5336 5.70158 20.9953 5.25871 20.6141C4.98501 20.3797 4.77056 20.083 4.63311 19.7485C4.49566 19.414 4.43916 19.0513 4.46826 18.6904C4.49736 18.3295 4.61125 17.9808 4.80048 17.6731C4.98972 17.3654 5.24888 17.1075 5.55654 16.9208C6.05464 16.6172 6.41752 16.1317 6.56976 15.5652C6.722 14.9988 6.65187 14.3949 6.37395 13.8793C6.20412 13.5606 6.11166 13.2059 6.10416 12.8442C6.09666 12.4825 6.17434 12.1242 6.3308 11.7987C6.48727 11.4731 6.71808 11.1897 7.00427 10.9715C7.29045 10.7534 7.62385 10.6068 7.97711 10.5438C8.55463 10.4432 9.07093 10.1206 9.41724 9.64387C9.76356 9.16711 9.9129 8.57341 9.83376 7.98784C9.78155 7.62627 9.81646 7.25737 9.93558 6.91229C10.0547 6.56722 10.2545 6.25615 10.5181 6.00542C10.7816 5.75469 11.1012 5.57164 11.4498 5.47182C11.7983 5.37199 12.1656 5.35832 12.5205 5.43192C13.0915 5.5459 13.6842 5.4335 14.1751 5.11812C14.6661 4.80275 15.0176 4.30868 15.1565 3.73865C15.2432 3.38777 15.4112 3.06268 15.647 2.7902C15.8827 2.51772 16.1792 2.30564 16.5122 2.17146C16.8452 2.03728 17.205 1.9848 17.562 2.01842C17.9191 2.05205 18.2631 2.17079 18.5656 2.36482C19.0603 2.67624 19.6549 2.7836 20.226 2.66462C20.7971 2.54564 21.3008 2.20944 21.6326 1.72584C21.8385 1.42906 22.1115 1.18598 22.4291 1.01674C22.7467 0.847498 23.0996 0.756963 23.4588 0.752592C23.818 0.748221 24.173 0.83016 24.4945 0.991625C24.8161 1.15309 25.0949 1.38943 25.3078 1.68111C25.6541 2.15264 26.1668 2.47196 26.74 2.57305C27.3132 2.67413 27.903 2.54928 28.3874 2.22427C28.6844 2.02285 29.0246 1.89537 29.38 1.85232C29.7354 1.80927 30.0958 1.85187 30.4317 1.97662C30.7675 2.10136 31.0692 2.30471 31.312 2.56993C31.5548 2.83514 31.7317 3.15466 31.8282 3.50223C31.982 4.06763 32.3451 4.5519 32.8427 4.85511C33.3403 5.15831 33.9344 5.2573 34.5023 5.13162C34.8526 5.05396 35.2163 5.0612 35.5634 5.15276C35.9104 5.24431 36.231 5.41756 36.4988 5.65828C36.7666 5.899 36.9739 6.20034 37.1038 6.53754C37.2337 6.87474 37.2824 7.23819 37.246 7.59807C37.1854 8.18005 37.349 8.76325 37.7028 9.22707C38.0566 9.6909 38.5737 9.99988 39.147 10.0901C39.5018 10.1444 39.8386 10.283 40.1297 10.4945C40.4208 10.706 40.6579 10.9843 40.8213 11.3064C40.9848 11.6285 41.0699 11.9852 41.0696 12.347C41.0694 12.7088 40.9838 13.0654 40.8199 13.3872C40.5542 13.9101 40.4988 14.5162 40.6652 15.0792C40.8317 15.6422 41.2071 16.1188 41.7134 16.4096C42.0254 16.5892 42.2904 16.8412 42.4866 17.1447C42.6829 17.4481 42.8046 17.7943 42.8417 18.1547C42.8789 18.515 42.8304 18.8791 42.7003 19.2168C42.5702 19.5544 42.3622 19.856 42.0935 20.0965C41.6583 20.4857 41.389 21.0293 41.3418 21.6139C41.2945 22.1985 41.4731 22.7789 41.8401 23.2339C42.0657 23.5154 42.2219 23.8468 42.2958 24.201C42.3697 24.5552 42.3592 24.9219 42.2652 25.2712C42.1712 25.6205 41.9963 25.9423 41.755 26.2102C41.5136 26.4781 41.2127 26.6844 40.8769 26.8122C40.3314 27.0174 39.8854 27.4268 39.6316 27.9553C39.3779 28.4837 39.3359 29.0905 39.5146 29.6493C39.6434 29.9967 39.6862 30.3705 39.6394 30.7384C39.5926 31.1063 39.4576 31.4571 39.246 31.7605C39.0344 32.0639 38.7526 32.3107 38.4251 32.4795C38.0976 32.6482 37.7342 32.734 37.3664 32.7292Z" fill="#6648FF"/>
<path d="M33.3422 21.3823V27.8871C33.3406 27.964 33.3091 28.0371 33.2547 28.0909C33.2002 28.1446 33.127 28.1747 33.0508 28.1747H29.724C29.6478 28.1747 29.5746 28.1446 29.5201 28.0909C29.4656 28.0371 29.4342 27.964 29.4325 27.8871V21.8424C29.4325 20.2513 28.8686 19.165 27.4555 19.165C27.0155 19.1675 26.587 19.3069 26.2286 19.5643C25.8702 19.8216 25.5994 20.1843 25.4531 20.6028C25.3549 20.9121 25.312 21.2367 25.3264 21.5612V27.8871C25.3247 27.964 25.2933 28.0371 25.2388 28.0909C25.1843 28.1446 25.1111 28.1747 25.0349 28.1747H21.7082C21.6326 28.1747 21.56 28.1444 21.5066 28.0904C21.4531 28.0365 21.423 27.9634 21.423 27.8871C21.423 26.2769 21.4611 18.4622 21.423 16.6283C21.4222 16.59 21.4289 16.5519 21.4429 16.5163C21.4568 16.4807 21.4777 16.4482 21.5043 16.4208C21.5309 16.3935 21.5626 16.3717 21.5976 16.3569C21.6326 16.342 21.6702 16.3344 21.7082 16.3344H25.0286C25.0666 16.3335 25.1043 16.3403 25.1397 16.3544C25.175 16.3685 25.2072 16.3895 25.2343 16.4163C25.2615 16.4431 25.2831 16.4751 25.2978 16.5104C25.3125 16.5457 25.3201 16.5836 25.3201 16.6219V18.0149C25.6726 17.3951 26.1868 16.8846 26.8068 16.5388C27.4268 16.193 28.1289 16.025 28.8369 16.0532C31.4096 16.0532 33.3359 17.7465 33.3359 21.3823H33.3422ZM15.644 28.1747H18.9708C19.047 28.1747 19.1202 28.1446 19.1747 28.0909C19.2291 28.0371 19.2606 27.964 19.2622 27.8871V16.6219C19.2606 16.5451 19.2291 16.4719 19.1747 16.4182C19.1202 16.3644 19.047 16.3344 18.9708 16.3344H15.644C15.5684 16.3344 15.4959 16.3647 15.4424 16.4186C15.3889 16.4725 15.3589 16.5457 15.3589 16.6219V27.8871C15.3589 27.9249 15.3663 27.9623 15.3806 27.9972C15.3949 28.032 15.4159 28.0637 15.4424 28.0904C15.4689 28.1172 15.5003 28.1384 15.5349 28.1528C15.5695 28.1673 15.6066 28.1747 15.644 28.1747Z" fill="white"/>
<path d="M17.1911 14.8286C18.3459 14.8286 19.2822 13.8845 19.2822 12.7199C19.2822 11.5554 18.3459 10.6113 17.1911 10.6113C16.0362 10.6113 15.1 11.5554 15.1 12.7199C15.1 13.8845 16.0362 14.8286 17.1911 14.8286Z" fill="white"/>
</g>
<defs>
<filter id="filter0_d_2521_50878" x="0.47998" y="0.835541" width="46.4" height="46.6136" filterUnits="userSpaceOnUse" color-interpolation-filters="sRGB">
<feFlood flood-opacity="0" result="BackgroundImageFix"/>
<feColorMatrix in="SourceAlpha" type="matrix" values="0 0 0 0 0 0 0 0 0 0 0 0 0 0 0 0 0 0 127 0" result="hardAlpha"/>
<feOffset dy="4"/>
<feGaussianBlur stdDeviation="2"/>
<feComposite in2="hardAlpha" operator="out"/>
<feColorMatrix type="matrix" values="0 0 0 0 0 0 0 0 0 0 0 0 0 0 0 0 0 0 0.25 0"/>
<feBlend mode="normal" in2="BackgroundImageFix" result="effect1_dropShadow_2521_50878"/>
<feBlend mode="normal" in="SourceGraphic" in2="effect1_dropShadow_2521_50878" result="shape"/>
</filter>
<clipPath id="clip0_2521_50878">
<rect width="38.4" height="38.6136" fill="white" transform="translate(4.47998 0.835541)"/>
</clipPath>
</defs>
</svg>
