<svg width="40" height="40" viewBox="0 0 40 40" fill="none" xmlns="http://www.w3.org/2000/svg">
<g clip-path="url(#clip0_2521_50875)">
<path d="M33.5272 32.7292C32.9446 32.7232 32.3821 32.9436 31.9563 33.3444C31.5304 33.7453 31.2738 34.2961 31.2397 34.8825C31.2191 35.2437 31.1137 35.5947 30.9321 35.9066C30.7505 36.2186 30.4979 36.4825 30.1952 36.6766C29.8925 36.8707 29.5484 36.9895 29.1912 37.0231C28.8341 37.0566 28.4741 37.0041 28.1411 36.8698C27.6009 36.6523 26.9985 36.6525 26.4584 36.8701C25.9183 37.0877 25.4818 37.5062 25.2389 38.0391C25.0903 38.3689 24.866 38.6584 24.5844 38.8834C24.3029 39.1084 23.9722 39.2626 23.6199 39.3332C23.2675 39.4037 22.9035 39.3887 22.5581 39.2892C22.2126 39.1897 21.8956 39.0087 21.6333 38.7611C21.2076 38.3612 20.6455 38.1421 20.0637 38.1492C19.482 38.1563 18.9253 38.3892 18.5094 38.7995C18.2527 39.0524 17.9401 39.2402 17.5973 39.3472C17.2545 39.4543 16.8913 39.4776 16.5378 39.4152C16.1844 39.3528 15.8507 39.2064 15.5643 38.9882C15.278 38.7701 15.0473 38.4864 14.8911 38.1605C14.638 37.6317 14.1925 37.2217 13.6472 37.0158C13.1019 36.8099 12.4989 36.824 11.9636 37.0551C11.6324 37.2023 11.2709 37.2672 10.9096 37.2444C10.5483 37.2215 10.1977 37.1116 9.88728 36.9238C9.57686 36.736 9.31567 36.4758 9.12566 36.1651C8.93565 35.8543 8.82236 35.5022 8.79531 35.1381C8.75145 34.5523 8.48389 34.0065 8.04895 33.6155C7.614 33.2246 7.04561 33.0191 6.46343 33.0423C6.10471 33.054 5.74834 32.9797 5.42362 32.8255C5.09889 32.6714 4.81507 32.4417 4.59549 32.1554C4.37591 31.8691 4.22684 31.5344 4.16051 31.1787C4.09417 30.823 4.11247 30.4565 4.21392 30.1094C4.38154 29.5466 4.32674 28.9403 4.06097 28.4174C3.79521 27.8945 3.33909 27.4956 2.78818 27.3042C2.44984 27.1843 2.14454 26.9851 1.89732 26.7231C1.65009 26.4611 1.46801 26.1437 1.36597 25.797C1.26394 25.4503 1.24488 25.0842 1.31036 24.7286C1.37583 24.373 1.52397 24.0382 1.74263 23.7515C2.09836 23.2867 2.26321 22.7017 2.20305 22.1177C2.14289 21.5337 1.86235 20.9953 1.41948 20.6141C1.14578 20.3797 0.931329 20.083 0.79388 19.7485C0.656431 19.414 0.599923 19.0513 0.629025 18.6904C0.658126 18.3296 0.772012 17.9808 0.961249 17.6731C1.15049 17.3654 1.40965 17.1075 1.7173 16.9208C2.2154 16.6172 2.57829 16.1317 2.73053 15.5652C2.88277 14.9988 2.81264 14.3949 2.53471 13.8793C2.36489 13.5606 2.27243 13.2059 2.26493 12.8442C2.25743 12.4825 2.3351 12.1242 2.49157 11.7987C2.64804 11.4731 2.87885 11.1897 3.16503 10.9715C3.45122 10.7534 3.78462 10.6068 4.13788 10.5438C4.7154 10.4433 5.23169 10.1206 5.57801 9.64387C5.92433 9.16711 6.07366 8.57345 5.99453 7.98788C5.94232 7.62631 5.97723 7.25737 6.09634 6.91229C6.21546 6.56722 6.41526 6.25615 6.67882 6.00542C6.94238 5.75469 7.26196 5.57168 7.61052 5.47186C7.95907 5.37203 8.32634 5.35835 8.68126 5.43196C9.2523 5.54594 9.84492 5.43354 10.3359 5.11816C10.8268 4.80279 11.1784 4.30868 11.3173 3.73865C11.4039 3.38777 11.572 3.06268 11.8077 2.7902C12.0434 2.51772 12.34 2.30564 12.673 2.17146C13.006 2.03728 13.3658 1.98484 13.7228 2.01846C14.0798 2.05209 14.4238 2.17079 14.7264 2.36482C15.2211 2.67624 15.8157 2.7836 16.3868 2.66462C16.9578 2.54564 17.4616 2.20944 17.7933 1.72584C17.9993 1.42906 18.2723 1.18602 18.5899 1.01678C18.9074 0.847537 19.2604 0.756963 19.6196 0.752592C19.9787 0.748221 20.3338 0.83016 20.6553 0.991625C20.9768 1.15309 21.2556 1.38947 21.4686 1.68115C21.8149 2.15268 22.3276 2.47196 22.9008 2.57305C23.474 2.67413 24.0637 2.54928 24.5482 2.22427C24.8452 2.02285 25.1854 1.89537 25.5407 1.85232C25.8961 1.80927 26.2565 1.85187 26.5924 1.97662C26.9283 2.10136 27.23 2.30471 27.4728 2.56993C27.7156 2.83514 27.8925 3.15466 27.989 3.50223C28.1427 4.06763 28.5059 4.5519 29.0035 4.85511C29.5011 5.15831 30.0952 5.2573 30.663 5.13162C31.0134 5.05396 31.3771 5.0612 31.7241 5.15276C32.0712 5.24431 32.3918 5.41756 32.6596 5.65828C32.9273 5.899 33.1347 6.20034 33.2646 6.53754C33.3945 6.87474 33.4432 7.23819 33.4068 7.59807C33.3462 8.18005 33.5097 8.76325 33.8636 9.22707C34.2174 9.6909 34.7344 9.99988 35.3078 10.0901C35.6625 10.1444 35.9994 10.2831 36.2905 10.4945C36.5816 10.706 36.8187 10.9843 36.9821 11.3064C37.1455 11.6285 37.2306 11.9852 37.2304 12.347C37.2301 12.7088 37.1445 13.0654 36.9807 13.3872C36.715 13.9101 36.6596 14.5162 36.826 15.0792C36.9924 15.6422 37.3679 16.1188 37.8741 16.4096C38.1861 16.5893 38.4512 16.8412 38.6474 17.1447C38.8436 17.4481 38.9654 17.7944 39.0025 18.1547C39.0397 18.515 38.9912 18.8791 38.8611 19.2168C38.731 19.5544 38.523 19.856 38.2543 20.0965C37.8191 20.4857 37.5498 21.0293 37.5025 21.6139C37.4553 22.1985 37.6338 22.7789 38.0009 23.2339C38.2265 23.5154 38.3827 23.8468 38.4566 24.201C38.5305 24.5552 38.52 24.9219 38.426 25.2712C38.332 25.6205 38.1571 25.9424 37.9157 26.2102C37.6744 26.4781 37.3735 26.6844 37.0377 26.8122C36.4922 27.0174 36.0461 27.4269 35.7924 27.9553C35.5386 28.4837 35.4967 29.0905 35.6753 29.6493C35.8041 29.9967 35.847 30.3706 35.8002 30.7384C35.7534 31.1063 35.6184 31.4571 35.4068 31.7605C35.1952 32.0639 34.9134 32.3107 34.5859 32.4795C34.2584 32.6482 33.895 32.734 33.5272 32.7292Z" fill="#6648FF"/>
<path d="M21.0576 25.8797C19.8219 25.7838 19.3087 25.164 18.3391 24.6017C17.9083 26.8893 17.395 29.0746 16.191 30.6017C16.1092 30.6877 16.0051 30.749 15.8906 30.7785C15.7761 30.808 15.6557 30.8046 15.5429 30.7687C15.4302 30.7328 15.3297 30.6658 15.2527 30.5754C15.1758 30.4849 15.1255 30.3745 15.1075 30.2567C14.9237 26.6145 16.172 23.7327 16.7803 20.672C15.6207 18.6975 16.9197 14.7231 19.372 15.7071C22.3946 16.9084 16.7613 23.0426 20.5443 23.8094C24.4857 24.6081 26.1015 16.902 23.6492 14.3972C20.1134 10.7806 13.3586 14.3141 14.1887 19.509C14.3471 20.4931 15.1645 20.9404 15.0631 21.918C15.0497 22.0568 15.003 22.1903 14.9272 22.307C14.8514 22.4237 14.7487 22.5201 14.6278 22.5879C14.5069 22.6558 14.3716 22.693 14.2333 22.6966C14.095 22.7001 13.9579 22.6697 13.8338 22.6081C12.2687 21.8733 11.7807 20.2566 11.8568 18.1991C11.9962 14.2758 15.3546 11.5218 18.7257 11.1703C22.9902 10.6847 26.9633 12.7486 27.54 16.787C28.1736 21.3493 25.639 26.2886 21.0576 25.9372V25.8797Z" fill="white"/>
</g>
<defs>
<clipPath id="clip0_2521_50875">
<rect width="38.4" height="38.6136" fill="white" transform="translate(0.640015 0.835541)"/>
</clipPath>
</defs>
</svg>
