<svg width="40" height="40" viewBox="0 0 40 40" fill="none" xmlns="http://www.w3.org/2000/svg">
<g clip-path="url(#clip0_2521_50870)">
<path d="M33.6872 32.7262C33.1047 32.7202 32.5422 32.9405 32.1163 33.3414C31.6904 33.7423 31.4339 34.293 31.3997 34.8795C31.3791 35.2406 31.2737 35.5917 31.0921 35.9036C30.9105 36.2156 30.6579 36.4795 30.3553 36.6736C30.0526 36.8677 29.7085 36.9865 29.3513 37.02C28.9941 37.0536 28.6342 37.0011 28.3011 36.8668C27.7609 36.6494 27.1586 36.6495 26.6185 36.8671C26.0784 37.0847 25.6418 37.5032 25.3989 38.0361C25.2503 38.3659 25.026 38.6554 24.7445 38.8804C24.4629 39.1054 24.1323 39.2596 23.7799 39.3302C23.4275 39.4008 23.0636 39.3857 22.7181 39.2862C22.3727 39.1867 22.0557 39.0057 21.7934 38.7581C21.3677 38.3582 20.8055 38.139 20.2238 38.1462C19.642 38.1533 19.0853 38.3862 18.6694 38.7965C18.4128 39.0494 18.1002 39.2372 17.7573 39.3443C17.4145 39.4513 17.0514 39.4746 16.6979 39.4122C16.3444 39.3497 16.0107 39.2034 15.7244 38.9852C15.438 38.7671 15.2073 38.4833 15.0512 38.1575C14.7981 37.6287 14.3525 37.2187 13.8072 37.0128C13.262 36.8069 12.659 36.821 12.1237 37.0521C11.7924 37.1993 11.431 37.2642 11.0697 37.2414C10.7083 37.2185 10.3578 37.1086 10.0473 36.9208C9.73691 36.733 9.47571 36.4728 9.28569 36.162C9.09568 35.8513 8.98241 35.4992 8.95536 35.1351C8.9115 34.5493 8.64392 34.0034 8.20898 33.6125C7.77404 33.2216 7.20565 33.0161 6.62347 33.0393C6.26474 33.051 5.90837 32.9767 5.58365 32.8225C5.25893 32.6684 4.97513 32.4387 4.75555 32.1524C4.53596 31.8661 4.38687 31.5314 4.32054 31.1757C4.25421 30.82 4.27252 30.4535 4.37397 30.1064C4.54159 29.5436 4.48678 28.9373 4.22101 28.4144C3.95524 27.8915 3.49914 27.4926 2.94823 27.3012C2.60989 27.1812 2.30459 26.9821 2.05737 26.7201C1.81015 26.4581 1.62804 26.1407 1.526 25.794C1.42397 25.4473 1.40491 25.0812 1.47039 24.7256C1.53587 24.37 1.68402 24.0352 1.90269 23.7485C2.25841 23.2836 2.42324 22.6987 2.36308 22.1147C2.30293 21.5306 2.02238 20.9923 1.57951 20.6111C1.30581 20.3767 1.09138 20.08 0.953932 19.7455C0.816483 19.411 0.759956 19.0483 0.789057 18.6874C0.818159 18.3265 0.932045 17.9778 1.12128 17.6701C1.31052 17.3624 1.56968 17.1045 1.87733 16.9178C2.37544 16.6142 2.73834 16.1287 2.89058 15.5622C3.04282 14.9958 2.97269 14.3919 2.69477 13.8763C2.52494 13.5576 2.43248 13.2029 2.42498 12.8412C2.41748 12.4795 2.49516 12.1212 2.65162 11.7957C2.80809 11.4701 3.03888 11.1866 3.32506 10.9685C3.61125 10.7504 3.94467 10.6038 4.29793 10.5408C4.87545 10.4403 5.39174 10.1176 5.73806 9.64087C6.08438 9.16412 6.2337 8.57043 6.15456 7.98487C6.108 7.62574 6.14715 7.26058 6.26875 6.91979C6.39036 6.579 6.59089 6.27241 6.85368 6.02553C7.11648 5.77865 7.43395 5.59862 7.77966 5.50041C8.12537 5.4022 8.48934 5.38865 8.84129 5.46089C9.41233 5.57486 10.005 5.46247 10.4959 5.14709C10.9869 4.83171 11.3384 4.33763 11.4773 3.76759C11.564 3.41672 11.7321 3.09163 11.9678 2.81915C12.2035 2.54666 12.5001 2.33459 12.833 2.20041C13.166 2.06622 13.5258 2.01379 13.8829 2.04741C14.2399 2.08103 14.5839 2.19975 14.8864 2.39379C15.3811 2.7052 15.9757 2.81255 16.5468 2.69356C17.1179 2.57458 17.6216 2.23841 17.9534 1.75481C18.1593 1.45803 18.4323 1.21495 18.7499 1.04571C19.0675 0.876463 19.4205 0.785909 19.7796 0.781538C20.1388 0.777167 20.4938 0.859105 20.8154 1.02057C21.1369 1.18204 21.4157 1.41839 21.6286 1.71008C21.9749 2.1816 22.4877 2.50092 23.0608 2.60201C23.634 2.7031 24.2238 2.57823 24.7082 2.25321C25.0052 2.0518 25.3454 1.92432 25.7008 1.88127C26.0562 1.83822 26.4166 1.88083 26.7525 2.00558C27.0883 2.13033 27.39 2.33366 27.6328 2.59887C27.8756 2.86408 28.0525 3.1836 28.149 3.53117C28.3028 4.09657 28.6659 4.58085 29.1635 4.88405C29.6611 5.18726 30.2552 5.28625 30.8231 5.16056C31.1735 5.08291 31.5371 5.09015 31.8842 5.1817C32.2312 5.27325 32.5518 5.4465 32.8196 5.68722C33.0874 5.92794 33.2947 6.22928 33.4246 6.56648C33.5545 6.90369 33.6033 7.26716 33.5668 7.62704C33.5063 8.20901 33.6698 8.7922 34.0236 9.25602C34.3774 9.71984 34.8945 10.0288 35.4678 10.1191C35.8226 10.1734 36.1594 10.312 36.4505 10.5235C36.7417 10.735 36.9787 11.0132 37.1421 11.3353C37.3056 11.6574 37.3907 12.0141 37.3904 12.3759C37.3902 12.7378 37.3046 13.0943 37.1407 13.4162C36.875 13.9391 36.8196 14.5451 36.9861 15.1081C37.1525 15.6712 37.5279 16.1477 38.0342 16.4386C38.3462 16.6182 38.6112 16.8702 38.8074 17.1736C39.0037 17.4771 39.1254 17.8233 39.1626 18.1836C39.1997 18.544 39.1512 18.908 39.0211 19.2457C38.891 19.5834 38.683 19.885 38.4144 20.1255C37.9805 20.5155 37.7122 21.0589 37.665 21.643C37.6178 22.2272 37.7954 22.8072 38.1609 23.2629C38.3865 23.5443 38.5427 23.8758 38.6166 24.2299C38.6905 24.5841 38.68 24.9509 38.586 25.3002C38.492 25.6495 38.3171 25.9713 38.0758 26.2392C37.8345 26.5071 37.5335 26.7134 37.1977 26.8412C36.6522 27.0464 36.2062 27.4558 35.9524 27.9842C35.6987 28.5127 35.6567 29.1194 35.8354 29.6782C35.9577 30.0239 35.9955 30.3942 35.9457 30.7578C35.8958 31.1213 35.7596 31.4674 35.5488 31.7665C35.3379 32.0657 35.0586 32.3092 34.7345 32.4762C34.4104 32.6433 34.0512 32.729 33.6872 32.7262Z" fill="#6648FF"/>
<path d="M29.9357 13.3752C29.2849 13.6569 28.6015 13.8544 27.9016 13.9631C28.2311 13.9055 28.7127 13.3241 28.9028 13.0621C29.2084 12.6986 29.4389 12.2771 29.5808 11.8225C29.5808 11.7842 29.6125 11.7394 29.5808 11.7139C29.5644 11.7043 29.5459 11.6993 29.527 11.6993C29.508 11.6993 29.4895 11.7043 29.4731 11.7139C28.708 12.1256 27.8948 12.439 27.0525 12.6468C27.0237 12.6559 26.9928 12.6566 26.9636 12.6487C26.9344 12.6407 26.9081 12.6246 26.8877 12.602C26.8208 12.5249 26.7488 12.4523 26.6723 12.3848C26.3207 12.0929 25.9249 11.8599 25.5 11.6947C24.9298 11.4611 24.3146 11.3606 23.7004 11.4008C23.1051 11.4422 22.5247 11.6076 21.9959 11.8864C21.4652 12.1667 20.9972 12.5538 20.6208 13.0238C20.228 13.5071 19.9467 14.0724 19.797 14.6787C19.6715 15.2541 19.6565 15.8484 19.7527 16.4295C19.7527 16.5318 19.7527 16.5445 19.6703 16.5318C16.3499 16.0334 13.5935 14.8321 11.363 12.2634C11.2616 12.1484 11.2109 12.1484 11.1285 12.2634C10.1527 13.7458 10.6279 16.0973 11.8509 17.2858C12.0093 17.4391 12.1804 17.5989 12.3578 17.7394C11.7993 17.6948 11.2547 17.5407 10.7547 17.2858C10.6596 17.2219 10.6089 17.2858 10.6026 17.3688C10.5903 17.5283 10.5903 17.6886 10.6026 17.8481C10.7042 18.6077 11.0051 19.3261 11.474 19.9293C11.943 20.5325 12.5631 20.9986 13.2703 21.2794C13.4412 21.3527 13.6198 21.4063 13.8026 21.4391C13.283 21.543 12.7499 21.5603 12.2248 21.4902C12.1107 21.4902 12.0663 21.5286 12.1107 21.6372C12.3809 22.348 12.8264 22.9775 13.4053 23.4662C13.9841 23.9548 14.677 24.2864 15.4184 24.4296C15.5705 24.4296 15.7162 24.4296 15.8683 24.4871C15.8683 24.4871 15.8683 24.4871 15.8683 24.519C15.4945 25.0877 14.2081 25.5094 13.6125 25.7203C12.515 26.1165 11.3457 26.269 10.1844 26.1676C10.0006 26.1356 9.95625 26.1676 9.91189 26.1676C9.86754 26.1676 9.9119 26.2379 9.9626 26.289C10.1971 26.4423 10.4315 26.5829 10.6786 26.7171C11.4045 27.1094 12.1718 27.418 12.9662 27.6372C17.085 28.7874 21.7234 27.9439 24.8157 24.8449C27.2426 22.4168 28.0917 19.0621 28.0917 15.7011C28.0917 15.5669 28.2501 15.4966 28.3388 15.4263C28.9544 14.9462 29.4949 14.3754 29.942 13.733C30.0134 13.6426 30.0495 13.529 30.0434 13.4135C30.018 13.3241 30.0244 13.3369 29.9357 13.3752Z" fill="white"/>
<path fill-rule="evenodd" clip-rule="evenodd" d="M16.5271 28.0556C16.5271 28.0172 16.8829 28.0556 16.5271 28.0556C16.5271 28.0364 16.5716 28.0556 16.5271 28.0556Z" fill="white"/>
<path fill-rule="evenodd" clip-rule="evenodd" d="M23.6571 11.3922C23.6456 11.4021 23.6309 11.4075 23.6158 11.4075C23.6006 11.4075 23.586 11.4021 23.5745 11.3922H23.6571Z" fill="white"/>
</g>
<defs>
<clipPath id="clip0_2521_50870">
<rect width="38.4" height="38.6136" fill="white" transform="translate(0.800049 0.835541)"/>
</clipPath>
</defs>
</svg>
