<svg width="18" height="14" viewBox="0 0 18 14" fill="none" xmlns="http://www.w3.org/2000/svg">
<path d="M6.65619 2.45771e-05C7.51057 -0.00219912 8.35888 0.146491 9.16365 0.439526C9.88214 0.702128 10.5481 1.09554 11.1292 1.60069C11.6985 2.08674 12.1579 2.69297 12.4759 3.37769C12.6231 3.69706 12.7328 4.03309 12.8026 4.37878C12.8186 4.46017 12.8026 4.47102 12.7283 4.4656C11.7352 4.41697 10.7445 4.60263 9.83301 5.00819C9.19382 5.29189 8.61263 5.69591 8.11976 6.19918C7.58311 6.73951 7.19239 7.41241 6.98556 8.15253C6.91034 8.43259 6.86405 8.71993 6.84744 9.00984C6.82217 9.48774 6.88063 9.96639 7.02009 10.4233C7.02327 10.4408 7.0277 10.458 7.03337 10.4748C7.04665 10.5155 7.03337 10.5318 6.98822 10.5373C6.74149 10.5549 6.49386 10.5549 6.24713 10.5373C5.95311 10.5188 5.66041 10.4826 5.37059 10.4287C5.13684 10.3853 4.90575 10.3283 4.67732 10.2632C4.59513 10.2379 4.50862 10.2305 4.42347 10.2418C4.33831 10.253 4.25645 10.2825 4.18327 10.3283L2.83126 11.1232C2.79337 11.1536 2.74661 11.1701 2.69845 11.1701C2.65029 11.1701 2.60353 11.1536 2.56564 11.1232C2.52599 11.0925 2.49726 11.0493 2.48383 11.0004C2.47041 10.9514 2.47302 10.8993 2.49127 10.8519C2.58955 10.4857 2.68517 10.1222 2.78079 9.76676C2.81893 9.6725 2.82246 9.56736 2.79074 9.47065C2.75902 9.37395 2.69418 9.2922 2.60814 9.24044C2.10322 8.86651 1.66403 8.40785 1.30925 7.88395C1.00899 7.43946 0.785306 6.94582 0.647863 6.42436C0.382354 5.41577 0.476498 4.34364 0.913483 3.3994C1.22359 2.72784 1.6689 2.13064 2.22033 1.64681C2.96207 1.00212 3.8377 0.538248 4.78091 0.290316C5.1935 0.173898 5.61595 0.0975878 6.04261 0.0624178C6.26307 0.0271491 6.48088 0.0163025 6.65619 2.45771e-05ZM3.64937 3.59472C3.64989 3.79475 3.70845 3.99013 3.81763 4.15618C3.92682 4.32224 4.08174 4.45152 4.26282 4.52769C4.4439 4.60387 4.64303 4.62353 4.83505 4.58417C5.02706 4.54482 5.20335 4.44823 5.34164 4.3066C5.47994 4.16497 5.57403 3.98465 5.61205 3.78843C5.65006 3.59221 5.63029 3.38889 5.55522 3.20414C5.48016 3.01939 5.35317 2.8615 5.19029 2.75043C5.02742 2.63935 4.83598 2.58007 4.64013 2.58007C4.5087 2.57932 4.37844 2.60545 4.25703 2.65689C4.13563 2.70833 4.02552 2.78404 3.9332 2.8796C3.84088 2.97516 3.76821 3.08862 3.71946 3.21329C3.67072 3.33797 3.64689 3.47135 3.64937 3.60557V3.59472ZM9.75863 3.59472C9.75863 3.395 9.70062 3.19977 9.59192 3.03375C9.48323 2.86772 9.32875 2.73836 9.14804 2.66205C8.96734 2.58575 8.76852 2.56593 8.57677 2.60509C8.38503 2.64425 8.20897 2.74064 8.07089 2.88205C7.93281 3.02347 7.83891 3.20355 7.80109 3.3995C7.76326 3.59545 7.7832 3.79846 7.8584 3.98283C7.93359 4.16719 8.06065 4.32463 8.2235 4.4352C8.38634 4.54576 8.57764 4.60448 8.77319 4.60395C9.03224 4.60109 9.27977 4.49417 9.46221 4.3063C9.64465 4.11844 9.74732 3.86476 9.74801 3.60016L9.75863 3.59472Z" fill="#6648FF"/>
<path d="M7.8993 9.50901C7.89178 8.76659 8.11089 8.04024 8.52616 7.43087C8.85768 6.94062 9.28332 6.52433 9.77723 6.20731C10.2076 5.92843 10.6756 5.71545 11.1664 5.57518C11.5136 5.47589 11.8695 5.41139 12.2289 5.38257C12.7971 5.33355 13.3692 5.37196 13.9262 5.49651C14.4836 5.62069 15.0175 5.83695 15.5067 6.13677C15.8797 6.36353 16.2187 6.64405 16.5134 6.96966C16.9827 7.47793 17.303 8.11052 17.4377 8.79549C17.5675 9.47213 17.4934 10.1731 17.2252 10.8058C17.0371 11.2465 16.7715 11.6484 16.4416 11.9914C16.2489 12.1878 16.042 12.3692 15.8228 12.534C15.774 12.5677 15.737 12.6163 15.7169 12.6728C15.6969 12.7294 15.6949 12.7909 15.7112 12.8487C15.7829 13.1444 15.8626 13.4401 15.9423 13.7358C15.9567 13.7677 15.9624 13.803 15.9587 13.8379C15.9549 13.8728 15.9419 13.906 15.921 13.9339C15.8966 13.9677 15.8602 13.9906 15.8196 13.9977C15.779 14.0048 15.7373 13.9955 15.7032 13.9719L15.2171 13.6843L14.6275 13.3397C14.5732 13.3068 14.5128 13.2859 14.45 13.2784C14.3873 13.2709 14.3238 13.277 14.2636 13.2963C13.8633 13.4126 13.4518 13.4836 13.0364 13.5079C12.6113 13.5347 12.1847 13.5138 11.7641 13.4455C11.2323 13.359 10.7165 13.1907 10.2341 12.9463C9.45271 12.5652 8.79927 11.9564 8.35616 11.1965C8.11368 10.7733 7.96076 10.3029 7.90726 9.81557C7.89865 9.71364 7.89599 9.61127 7.8993 9.50901ZM14.3034 7.36576C14.2031 7.36469 14.1035 7.38385 14.0105 7.42216C13.9174 7.46047 13.8326 7.51717 13.7611 7.58901C13.6895 7.66084 13.6325 7.74639 13.5934 7.84076C13.5543 7.93514 13.5338 8.03647 13.5331 8.13895C13.5351 8.34439 13.6152 8.54101 13.7564 8.6873C13.8977 8.83358 14.089 8.91809 14.2901 8.92301C14.391 8.92445 14.4911 8.90536 14.5847 8.86684C14.6783 8.82833 14.7634 8.77115 14.8351 8.69867C14.9068 8.62619 14.9637 8.53984 15.0024 8.44468C15.041 8.34951 15.0608 8.24743 15.0604 8.14438C15.0622 8.04323 15.0443 7.94273 15.0078 7.8487C14.9712 7.75466 14.9168 7.66895 14.8476 7.59654C14.7785 7.52413 14.6959 7.46644 14.6048 7.42683C14.5137 7.38722 14.4157 7.36646 14.3167 7.36576H14.3034ZM10.3324 8.13895C10.3308 8.29348 10.3741 8.44501 10.4569 8.57438C10.5396 8.70375 10.6581 8.80515 10.7972 8.86577C10.9364 8.92638 11.0901 8.94348 11.2388 8.91491C11.3874 8.88634 11.5245 8.81339 11.6326 8.70526C11.7407 8.59714 11.815 8.45871 11.846 8.30747C11.8771 8.15623 11.8635 7.99898 11.8071 7.8556C11.7507 7.71222 11.6539 7.58916 11.529 7.50197C11.404 7.41478 11.2566 7.36738 11.1053 7.36576C11.0047 7.36396 10.9047 7.3826 10.8112 7.42062C10.7176 7.45864 10.6324 7.51528 10.5605 7.58722C10.4886 7.65916 10.4314 7.74497 10.3922 7.83969C10.3531 7.93441 10.3327 8.03614 10.3324 8.13895Z" fill="#6648FF"/>
</svg>
