<svg width="18" height="12" viewBox="0 0 18 12" fill="none" xmlns="http://www.w3.org/2000/svg">
<path fill-rule="evenodd" clip-rule="evenodd" d="M2.24921 11.6575C1.94615 11.5656 1.66944 11.4016 1.44245 11.1793C1.21545 10.957 1.04482 10.6829 0.944928 10.3802C0.379122 8.81369 0.211776 2.2611 1.29823 0.970395C1.65365 0.53755 2.16458 0.264126 2.71938 0.209889C5.64138 -0.10877 14.7129 -0.0578854 15.7568 0.317008C16.05 0.412814 16.3177 0.574395 16.54 0.789613C16.7622 1.00483 16.9331 1.26806 17.0399 1.5595C17.6561 3.16619 17.6774 9.05737 16.9575 10.6292C16.7646 11.0365 16.4407 11.3659 16.0384 11.5638C14.944 12.1315 3.68896 12.1262 2.24921 11.6575ZM6.90581 8.58609L12.1867 5.82525L6.90581 3.04836V8.58609Z" fill="#6648FF"/>
</svg>
