<svg width="12" height="12" viewBox="0 0 12 12" fill="none" xmlns="http://www.w3.org/2000/svg">
<path d="M10.65 6.115H8.91C8.42 6.115 7.985 6.385 7.765 6.825L7.345 7.655C7.245 7.855 7.045 7.98 6.825 7.98H5.185C5.03 7.98 4.81 7.945 4.665 7.655L4.245 6.83C4.1387 6.61716 3.97534 6.43806 3.77315 6.31269C3.57096 6.18731 3.3379 6.1206 3.1 6.12H1.35C1.155 6.12 1 6.275 1 6.47V8.1C1 9.915 2.09 11 3.91 11H8.1C9.815 11 10.87 10.06 11 8.39V6.465C11 6.275 10.845 6.115 10.65 6.115ZM6.375 1C6.375 0.795 6.205 0.625 6 0.625C5.795 0.625 5.625 0.795 5.625 1V2H6.375V1Z" fill="#6648FF"/>
<path d="M11 4.905V5.425C10.8877 5.38489 10.7693 5.36459 10.65 5.365H8.91C8.135 5.365 7.44 5.795 7.095 6.485L6.72 7.225H5.29L4.915 6.49C4.74843 6.15113 4.48991 5.86593 4.16897 5.667C3.84802 5.46807 3.47759 5.36342 3.1 5.365H1.35C1.23 5.365 1.11 5.385 1 5.425V4.905C1 3.085 2.085 2 3.905 2H5.625V3.595L5.265 3.235C5.19443 3.16526 5.09922 3.12615 5 3.12615C4.90078 3.12615 4.80557 3.16526 4.735 3.235C4.59 3.38 4.59 3.62 4.735 3.765L5.735 4.765C5.74 4.77 5.745 4.77 5.745 4.775C5.81443 4.83917 5.90546 4.87486 6 4.875C6.05 4.875 6.095 4.865 6.14 4.845C6.185 4.83 6.23 4.8 6.265 4.765L7.265 3.765C7.41 3.62 7.41 3.38 7.265 3.235C7.19443 3.16526 7.09922 3.12615 7 3.12615C6.90078 3.12615 6.80557 3.16526 6.735 3.235L6.375 3.595V2H8.095C9.915 2 11 3.085 11 4.905Z" fill="#6648FF"/>
</svg>
