<svg width="9" height="16" viewBox="0 0 9 16" fill="none" xmlns="http://www.w3.org/2000/svg">
<path fill-rule="evenodd" clip-rule="evenodd" d="M7.17844 2.6956C7.71736 2.68063 8.25629 2.6956 8.78174 2.6956H9V0.117091C8.71437 0.0896334 8.41797 0.0546881 8.11887 0.0397113C7.57994 0.0172461 7.02215 -0.00772136 6.47245 0.00226318C5.64271 -0.00170297 4.83175 0.230997 4.1497 0.668742C3.77416 0.922492 3.45739 1.24343 3.2181 1.61258C2.97881 1.98173 2.82187 2.39159 2.75658 2.81791C2.6933 3.18278 2.66087 3.55166 2.65958 3.9212C2.64341 4.5003 2.65958 5.07691 2.65958 5.66849V5.88566H0V8.76121H2.64341V16H5.87695V8.78616H8.51228C8.64701 7.82765 8.78174 6.88162 8.91647 5.89565H5.85C5.85 5.89565 5.85 4.47036 5.87695 3.85131C5.9012 2.98016 6.44551 2.72056 7.17844 2.6956Z" fill="#6648FF"/>
</svg>
