<svg width="17" height="16" viewBox="0 0 17 16" fill="none" xmlns="http://www.w3.org/2000/svg">
<path d="M16.8628 4.00478C16.772 2.96956 16.2828 2.00109 15.4869 1.28108C14.6383 0.536961 13.5282 0.112678 12.3684 0.0891481C10.3708 -0.0108039 5.6267 -0.0782599 3.96121 0.179116C2.0593 0.471476 0.810839 1.51597 0.284892 3.28512C-0.121521 4.64697 -0.0391765 10.9215 0.197234 12.2658C0.518646 14.1074 1.67413 15.2869 3.61057 15.7641C4.93872 16.089 11.5423 16.049 13.0218 15.8216C14.9769 15.5242 16.236 14.4423 16.7406 12.6231C17.1338 11.2113 16.9983 5.27917 16.8628 4.00478ZM15.2956 12.0009C15.0698 13.4003 14.0844 14.2648 12.5915 14.4198C11.2209 14.5597 5.09545 14.6397 3.82574 14.3023C3.26855 14.1788 2.76546 13.8965 2.38514 13.494C2.00483 13.0915 1.7658 12.5884 1.7007 12.0534C1.50679 10.9514 1.45898 5.45157 1.7007 3.97978C1.92648 2.59295 2.91197 1.73086 4.39684 1.57344C5.88171 1.41601 11.3218 1.39602 12.7642 1.60342C14.2464 1.81832 15.1548 2.74788 15.3248 4.1547C15.4842 5.45657 15.5161 10.5891 15.2956 11.9984V12.0009ZM8.50082 3.88983C7.63805 3.88933 6.79451 4.12955 6.0769 4.58009C5.35928 5.03064 4.79982 5.67127 4.46929 6.42096C4.13876 7.17065 4.05201 7.99571 4.22001 8.79178C4.388 9.58786 4.8032 10.3192 5.41308 10.8933C6.02296 11.4673 6.80012 11.8583 7.64627 12.0169C8.49242 12.1754 9.36953 12.0943 10.1667 11.7838C10.9638 11.4733 11.6452 10.9474 12.1245 10.2726C12.6039 9.59785 12.8598 8.80446 12.8598 7.99285C12.8608 7.45385 12.7489 6.91995 12.5302 6.42172C12.3116 5.9235 11.9907 5.47075 11.5857 5.08939C11.1808 4.70802 10.6999 4.40553 10.1706 4.19926C9.64121 3.993 9.07379 3.887 8.50082 3.88733V3.88983ZM8.4716 10.6366C7.91437 10.6316 7.37118 10.4716 6.91055 10.1765C6.44993 9.88152 6.0925 9.46477 5.88338 8.97887C5.67425 8.49297 5.62279 7.9597 5.73548 7.44632C5.84817 6.93293 6.11997 6.46244 6.51659 6.09421C6.91321 5.72598 7.41688 5.47651 7.96406 5.37726C8.51123 5.278 9.0774 5.33341 9.59113 5.53651C10.1049 5.73961 10.5431 6.08129 10.8507 6.51845C11.1582 6.9556 11.3212 7.46864 11.3191 7.99285C11.3188 8.34313 11.2447 8.68987 11.1011 9.01305C10.9575 9.33623 10.7472 9.62943 10.4824 9.87572C10.2177 10.122 9.90363 10.3165 9.55849 10.448C9.21335 10.5794 8.84393 10.6452 8.4716 10.6416V10.6366ZM14.0498 3.7274C14.0488 3.91739 13.9878 4.1028 13.8746 4.26015C13.7614 4.41749 13.6011 4.53968 13.414 4.61124C13.2269 4.68279 13.0214 4.70049 12.8236 4.66209C12.6258 4.62368 12.4446 4.53091 12.3029 4.39552C12.1612 4.26013 12.0655 4.08822 12.0277 3.90157C11.99 3.71493 12.0121 3.52195 12.091 3.34709C12.17 3.17223 12.3024 3.02337 12.4714 2.91936C12.6404 2.81536 12.8385 2.76089 13.0404 2.76287C13.1746 2.76317 13.3073 2.78862 13.4309 2.83774C13.5544 2.88685 13.6663 2.95864 13.7601 3.04891C13.8538 3.13918 13.9275 3.24611 13.9768 3.36347C14.0261 3.48083 14.05 3.60624 14.0472 3.7324L14.0498 3.7274Z" fill="#6648FF"/>
</svg>
