<svg width="12" height="12" viewBox="0 0 12 12" fill="none" xmlns="http://www.w3.org/2000/svg">
<path d="M9.53562 7.12103C9.39062 7.26603 9.16062 7.26603 9.02063 7.12103C8.98618 7.08757 8.9588 7.04754 8.9401 7.00331C8.92141 6.95908 8.91177 6.91155 8.91177 6.86353C8.91177 6.81551 8.92141 6.76798 8.9401 6.72375C8.9588 6.67952 8.98618 6.63949 9.02063 6.60603C10.0206 5.60603 10.0206 3.98103 9.02063 2.98603C8.02063 1.99103 6.39562 1.98603 5.40062 2.98603C4.40562 3.98603 4.40062 5.61103 5.40062 6.60603C5.54562 6.75103 5.54562 6.98103 5.40062 7.12103C5.25562 7.26603 5.02562 7.26603 4.88563 7.12103C3.60063 5.83603 3.60063 3.74603 4.88563 2.46603C6.17062 1.18603 8.26062 1.18103 9.54062 2.46603C10.1559 3.08468 10.5009 3.92202 10.5 4.79456C10.499 5.6671 10.1523 6.50369 9.53562 7.12103Z" fill="#6648FF"/>
<path d="M2.46435 4.87999C2.60935 4.73499 2.83935 4.73499 2.97935 4.87999C3.12435 5.02499 3.12435 5.25499 2.97935 5.39499C1.97935 6.39499 1.97935 8.01999 2.97935 9.01499C3.97935 10.01 5.60435 10.015 6.59935 9.01499C7.59435 8.01499 7.59935 6.38999 6.59935 5.39499C6.5649 5.36153 6.53752 5.3215 6.51883 5.27727C6.50013 5.23304 6.4905 5.18551 6.4905 5.13749C6.4905 5.08947 6.50013 5.04194 6.51883 4.99771C6.53752 4.95348 6.5649 4.91345 6.59935 4.87999C6.74435 4.73499 6.97435 4.73499 7.11435 4.87999C8.39935 6.16499 8.39935 8.25499 7.11435 9.53499C5.82935 10.815 3.73935 10.82 2.45935 9.53499C1.84404 8.91634 1.49906 8.079 1.5 7.20646C1.50094 6.33391 1.84772 5.49732 2.46435 4.87999Z" fill="#6648FF"/>
</svg>
