<svg width="17" height="16" viewBox="0 0 17 16" fill="none" xmlns="http://www.w3.org/2000/svg">
<path d="M0.281563 5.3058H3.80906V15.9875H0.281563V5.3058ZM2.04532 6.52111e-06C2.44931 0.000502069 2.84408 0.11392 3.1797 0.325909C3.51532 0.537898 3.77672 0.838939 3.93084 1.19097C4.08496 1.543 4.12487 1.93021 4.04554 2.30362C3.96621 2.67704 3.77119 3.01988 3.48515 3.28882C3.19911 3.55776 2.83489 3.7407 2.43855 3.81451C2.04221 3.88832 1.63155 3.84969 1.25851 3.7035C0.885464 3.55731 0.566786 3.31011 0.342773 2.99319C0.118761 2.67627 -0.000523288 2.30384 1.72566e-06 1.92301C8.15742e-07 1.67005 0.0529437 1.41959 0.155795 1.18596C0.258647 0.95232 0.40939 0.740109 0.599384 0.561476C0.789378 0.382843 1.01489 0.241292 1.26301 0.144947C1.51113 0.0486023 1.77697 -0.000652214 2.04532 6.52111e-06Z" fill="#6648FF"/>
<path d="M6.01907 5.30579H9.39782V6.7806H9.44297C9.91313 5.93928 11.0633 5.0554 12.7792 5.0554C16.3439 5.0554 17 7.26635 17 10.1433V16H13.4805V10.7869C13.4805 9.54742 13.4566 7.95493 11.6503 7.95493C9.84406 7.95493 9.5386 9.30454 9.5386 10.6967V15.98H6.01907V5.30579Z" fill="#6648FF"/>
</svg>
