<svg width="12" height="12" viewBox="0 0 12 12" fill="none" xmlns="http://www.w3.org/2000/svg">
<path d="M10.3105 4.225C9.78554 1.915 7.77054 0.875 6.00054 0.875H5.99554C4.23054 0.875 2.21054 1.91 1.68554 4.22C1.10054 6.8 2.68054 8.985 4.11054 10.36C4.6174 10.8506 5.29514 11.1249 6.00054 11.125C6.68054 11.125 7.36054 10.87 7.88554 10.36C9.31554 8.985 10.8955 6.805 10.3105 4.225ZM6.00054 6.73C5.7937 6.73 5.5889 6.68926 5.39781 6.61011C5.20672 6.53096 5.0331 6.41495 4.88684 6.26869C4.74059 6.12244 4.62458 5.94881 4.54543 5.75773C4.46627 5.56664 4.42554 5.36183 4.42554 5.155C4.42554 4.94817 4.46627 4.74336 4.54543 4.55227C4.62458 4.36119 4.74059 4.18756 4.88684 4.04131C5.0331 3.89505 5.20672 3.77904 5.39781 3.69989C5.5889 3.62074 5.7937 3.58 6.00054 3.58C6.41825 3.58 6.81886 3.74594 7.11423 4.04131C7.4096 4.33668 7.57554 4.73728 7.57554 5.155C7.57554 5.57272 7.4096 5.97332 7.11423 6.26869C6.81886 6.56406 6.41825 6.73 6.00054 6.73Z" fill="#6648FF"/>
</svg>
