<svg width="96" height="96" viewBox="0 0 96 96" fill="none" xmlns="http://www.w3.org/2000/svg">
<rect x="1" y="1" width="94" height="94" rx="47" fill="white"/>
<path d="M40.2871 66.6751L54.7896 75.7846C56.2694 76.7143 58.173 75.6277 58.173 73.8557V59.4161L40.2871 66.6385V66.6734V66.6751Z" fill="#4D36BF"/>
<path d="M68.1115 24.9751V53.8611C68.1115 54.7908 67.551 55.6297 66.7069 55.9715L58.1732 59.4161L40.2891 66.642V45.7022C44.7985 45.7022 48.7527 43.2674 50.9587 39.6152C52.1344 37.6688 52.8179 35.37 52.8179 32.9143C52.8179 31.2382 52.5 29.6406 51.9276 28.1773L65.0716 22.8648C66.5292 22.277 68.1115 23.374 68.1115 24.9751Z" fill="#6648FF"/>
<path d="M51.9234 28.1773C50.0797 23.4595 45.5668 20.1248 40.2866 20.1248C33.3678 20.1248 27.7578 25.8507 27.7578 32.9126C27.7578 39.9745 33.3678 45.7004 40.2866 45.7004V32.8777L51.9252 28.1773H51.9234Z" fill="#F9B019"/>
<path d="M52.8159 32.9143C52.8159 35.37 52.1341 37.667 50.9568 39.6152C48.7507 43.2674 44.7966 45.7022 40.2871 45.7022V32.876L51.9256 28.1773C52.4981 29.6406 52.8159 31.2382 52.8159 32.9143Z" fill="#59EDF7"/>
<rect x="1" y="1" width="94" height="94" rx="47" stroke="#6648FF" stroke-width="2"/>
</svg>
