<svg width="50" height="68" viewBox="0 0 50 68" fill="none" xmlns="http://www.w3.org/2000/svg">
<g clip-path="url(#clip0_6745_5613)">
<path d="M15.7129 56.5255L33.323 67.587C35.1199 68.7158 37.4314 67.3964 37.4314 65.2447V47.711L15.7129 56.481V56.5234V56.5255Z" fill="#4D36BF"/>
<path d="M49.4992 5.88974V40.9656C49.4992 42.0944 48.8186 43.1131 47.7936 43.5282L37.4313 47.711L15.7148 56.4852V31.0583C21.1906 31.0583 25.9921 28.1018 28.6708 23.667C30.0984 21.3035 30.9284 18.5121 30.9284 15.5302C30.9284 13.4949 30.5425 11.555 29.8473 9.77811L45.8079 3.32714C47.5778 2.61342 49.4992 3.94555 49.4992 5.88974Z" fill="#6648FF"/>
<path d="M29.844 9.77812C27.6051 4.04933 22.1252 0 15.7136 0C7.31207 0 0.5 6.95291 0.5 15.5281C0.5 24.1033 7.31207 31.0562 15.7136 31.0562V15.4857L29.8461 9.77812H29.844Z" fill="#F9B019"/>
<path d="M30.9264 15.5302C30.9264 18.5122 30.0985 21.3014 28.6689 23.667C25.9901 28.1018 21.1887 31.0583 15.7129 31.0583V15.4836L29.8454 9.77814C30.5405 11.555 30.9264 13.495 30.9264 15.5302Z" fill="#59EDF7"/>
</g>
<defs>
<clipPath id="clip0_6745_5613">
<rect width="49" height="68" fill="white" transform="translate(0.5)"/>
</clipPath>
</defs>
</svg>
