<svg width="13" height="16" viewBox="0 0 13 16" fill="none" xmlns="http://www.w3.org/2000/svg">
<path fill-rule="evenodd" clip-rule="evenodd" d="M5.41993 10.4372C5.40419 10.4847 5.39109 10.5222 5.3806 10.5622C4.76426 12.8647 4.69607 13.3747 4.06924 14.4447C3.76646 14.9509 3.42548 15.4355 3.049 15.8947C3.00703 15.9472 2.96769 16.0147 2.88114 15.9972C2.79459 15.9797 2.78148 15.8997 2.77099 15.8297C2.66483 15.1311 2.62009 14.4253 2.63723 13.7197C2.67132 12.8022 2.78935 12.4847 4.03514 7.49727C4.0483 7.42693 4.03822 7.35442 4.00629 7.28977C3.69488 6.54577 3.66061 5.72246 3.90924 4.95729C4.47312 3.25731 6.49524 3.12733 6.84931 4.52981C7.067 5.3998 6.49262 6.52978 6.0625 8.21476C5.69532 9.59975 7.40533 10.5847 8.86881 9.57225C10.2169 8.63976 10.7414 6.40478 10.6418 4.8223C10.4451 1.65984 6.80997 0.977346 4.5046 1.99483C1.86352 3.15982 1.2603 6.28478 2.45363 7.71227C2.60575 7.89227 2.71591 8.00227 2.67132 8.18727C2.59527 8.47227 2.52708 8.76226 2.44577 9.04476C2.43547 9.09187 2.4136 9.13599 2.38198 9.17351C2.35036 9.21103 2.30989 9.24089 2.26385 9.26064C2.2178 9.28039 2.1675 9.28947 2.11707 9.28714C2.06664 9.28482 2.01752 9.27115 1.97369 9.24725C1.54059 9.07983 1.16024 8.80856 0.869518 8.45976C-0.142851 7.26227 -0.441837 4.89729 0.90624 2.89232C2.3907 0.672341 5.15242 -0.225135 7.67285 0.047362C10.6837 0.374858 12.5878 2.33483 12.9445 4.55981C13.1071 5.5748 12.9917 8.07477 11.4994 9.83975C9.7815 11.8697 6.99618 12.0047 5.71367 10.7597C5.60974 10.6574 5.51168 10.5497 5.41993 10.4372Z" fill="#6648FF"/>
</svg>
