<svg width="17" height="14" viewBox="0 0 17 14" fill="none" xmlns="http://www.w3.org/2000/svg">
<path fill-rule="evenodd" clip-rule="evenodd" d="M5.15853 10.9549C4.43133 10.937 3.72762 10.6915 3.14472 10.2524C2.56181 9.81321 2.12855 9.20208 1.90486 8.50353C2.40143 8.59897 2.9127 8.58339 3.40267 8.45789C3.40267 8.45789 3.42927 8.45788 3.45322 8.4364C2.98534 8.33934 2.54222 8.14625 2.15138 7.86913C1.76054 7.592 1.43032 7.23674 1.18122 6.82542C0.833694 6.2623 0.656205 5.60921 0.670428 4.94594C1.14839 5.21061 1.6818 5.35694 2.22676 5.37286C1.49571 4.86521 0.980902 4.09833 0.784823 3.22489C0.583834 2.35481 0.717914 1.44016 1.15993 0.666104C2.04095 1.75415 3.13721 2.64473 4.37864 3.28088C5.62008 3.91704 6.97938 4.28479 8.36964 4.36062C8.34836 4.221 8.32707 4.09213 8.31377 3.97667C8.20624 3.17016 8.38737 2.35137 8.82458 1.66759C9.07792 1.23905 9.42206 0.872385 9.83233 0.593867C10.2426 0.315349 10.7089 0.131877 11.1977 0.0566106C11.749 -0.0455303 12.3168 -0.00905532 12.8508 0.162803C13.3849 0.334662 13.8688 0.636626 14.2598 1.04201C14.2826 1.06785 14.3122 1.08661 14.3452 1.09612C14.3782 1.10563 14.4131 1.10549 14.446 1.09571C15.1614 0.942475 15.8483 0.676058 16.4812 0.306327L16.5264 0.282155H16.5504C16.2881 1.07871 15.7583 1.75776 15.0526 2.20191C15.725 2.12397 16.3817 1.94288 17 1.66492V1.68103C16.867 1.85824 16.734 2.03813 16.5983 2.21802C16.228 2.67772 15.8005 3.0874 15.3266 3.43699C15.3079 3.44811 15.2927 3.46435 15.2828 3.48385C15.2729 3.50334 15.2687 3.52526 15.2707 3.54707C15.2898 4.0707 15.2676 4.59503 15.2042 5.1151C15.0705 6.20472 14.766 7.26598 14.3023 8.2592C13.8296 9.28631 13.1913 10.2272 12.4135 11.0435C11.1205 12.4134 9.44921 13.3592 7.61674 13.758C6.97666 13.8999 6.32449 13.979 5.66932 13.9943C3.69889 14.0615 1.75346 13.5333 0.0824719 12.4773L0 12.4236C1.18921 12.5629 2.39399 12.3947 3.5011 11.9349C4.09623 11.688 4.65412 11.3581 5.15853 10.9549Z" fill="#6648FF"/>
</svg>
