<svg width="17" height="14" viewBox="0 0 17 14" fill="none" xmlns="http://www.w3.org/2000/svg">
<path d="M6.15619 2.45771e-05C7.01057 -0.00219912 7.85888 0.146491 8.66365 0.439526C9.38214 0.702128 10.0481 1.09554 10.6292 1.60069C11.1985 2.08674 11.6579 2.69297 11.9759 3.37769C12.1231 3.69706 12.2328 4.03309 12.3026 4.37878C12.3186 4.46017 12.3026 4.47102 12.2283 4.4656C11.2352 4.41697 10.2445 4.60263 9.33301 5.00819C8.69382 5.29189 8.11263 5.69591 7.61976 6.19918C7.08311 6.73951 6.69239 7.41241 6.48556 8.15253C6.41034 8.43259 6.36405 8.71993 6.34744 9.00984C6.32217 9.48774 6.38063 9.96639 6.52009 10.4233C6.52327 10.4408 6.5277 10.458 6.53337 10.4748C6.54665 10.5155 6.53337 10.5318 6.48822 10.5373C6.24149 10.5549 5.99386 10.5549 5.74713 10.5373C5.45311 10.5188 5.16041 10.4826 4.87059 10.4287C4.63684 10.3853 4.40575 10.3283 4.17732 10.2632C4.09513 10.2379 4.00862 10.2305 3.92347 10.2418C3.83831 10.253 3.75645 10.2825 3.68327 10.3283L2.33126 11.1232C2.29337 11.1536 2.24661 11.1701 2.19845 11.1701C2.15029 11.1701 2.10353 11.1536 2.06564 11.1232C2.02599 11.0925 1.99726 11.0493 1.98383 11.0004C1.97041 10.9514 1.97302 10.8993 1.99127 10.8519C2.08955 10.4857 2.18517 10.1222 2.28079 9.76676C2.31893 9.6725 2.32246 9.56736 2.29074 9.47065C2.25902 9.37395 2.19418 9.2922 2.10814 9.24044C1.60322 8.86651 1.16403 8.40785 0.809254 7.88395C0.508988 7.43946 0.285306 6.94582 0.147863 6.42436C-0.117646 5.41577 -0.0235017 4.34364 0.413483 3.3994C0.723591 2.72784 1.1689 2.13064 1.72033 1.64681C2.46207 1.00212 3.3377 0.538248 4.28091 0.290316C4.6935 0.173898 5.11595 0.0975878 5.54261 0.0624178C5.76307 0.0271491 5.98088 0.0163025 6.15619 2.45771e-05ZM3.14937 3.59472C3.14989 3.79475 3.20845 3.99013 3.31763 4.15618C3.42682 4.32224 3.58174 4.45152 3.76282 4.52769C3.9439 4.60387 4.14303 4.62353 4.33505 4.58417C4.52706 4.54482 4.70335 4.44823 4.84164 4.3066C4.97994 4.16497 5.07403 3.98465 5.11205 3.78843C5.15006 3.59221 5.13029 3.38889 5.05522 3.20414C4.98016 3.01939 4.85317 2.8615 4.69029 2.75043C4.52742 2.63935 4.33598 2.58007 4.14013 2.58007C4.0087 2.57932 3.87844 2.60545 3.75703 2.65689C3.63563 2.70833 3.52552 2.78404 3.4332 2.8796C3.34088 2.97516 3.26821 3.08862 3.21946 3.21329C3.17072 3.33797 3.14689 3.47135 3.14937 3.60557V3.59472ZM9.25863 3.59472C9.25863 3.395 9.20062 3.19977 9.09192 3.03375C8.98323 2.86772 8.82875 2.73836 8.64804 2.66205C8.46734 2.58575 8.26852 2.56593 8.07677 2.60509C7.88503 2.64425 7.70897 2.74064 7.57089 2.88205C7.43281 3.02347 7.33891 3.20355 7.30109 3.3995C7.26326 3.59545 7.2832 3.79846 7.3584 3.98283C7.43359 4.16719 7.56065 4.32463 7.7235 4.4352C7.88634 4.54576 8.07764 4.60448 8.27319 4.60395C8.53224 4.60109 8.77977 4.49417 8.96221 4.3063C9.14465 4.11844 9.24732 3.86476 9.24801 3.60016L9.25863 3.59472Z" fill="#6648FF"/>
<path d="M7.3993 9.50901C7.39178 8.76659 7.61089 8.04024 8.02616 7.43087C8.35768 6.94062 8.78332 6.52433 9.27723 6.20731C9.70758 5.92843 10.1756 5.71545 10.6664 5.57518C11.0136 5.47589 11.3695 5.41139 11.7289 5.38257C12.2971 5.33355 12.8692 5.37196 13.4262 5.49651C13.9836 5.62069 14.5175 5.83695 15.0067 6.13677C15.3797 6.36353 15.7187 6.64405 16.0134 6.96966C16.4827 7.47793 16.803 8.11052 16.9377 8.79549C17.0675 9.47213 16.9934 10.1731 16.7252 10.8058C16.5371 11.2465 16.2715 11.6484 15.9416 11.9914C15.7489 12.1878 15.542 12.3692 15.3228 12.534C15.274 12.5677 15.237 12.6163 15.2169 12.6728C15.1969 12.7294 15.1949 12.7909 15.2112 12.8487C15.2829 13.1444 15.3626 13.4401 15.4423 13.7358C15.4567 13.7677 15.4624 13.803 15.4587 13.8379C15.4549 13.8728 15.4419 13.906 15.421 13.9339C15.3966 13.9677 15.3602 13.9906 15.3196 13.9977C15.279 14.0048 15.2373 13.9955 15.2032 13.9719L14.7171 13.6843L14.1275 13.3397C14.0732 13.3068 14.0128 13.2859 13.95 13.2784C13.8873 13.2709 13.8238 13.277 13.7636 13.2963C13.3633 13.4126 12.9518 13.4836 12.5364 13.5079C12.1113 13.5347 11.6847 13.5138 11.2641 13.4455C10.7323 13.359 10.2165 13.1907 9.7341 12.9463C8.95271 12.5652 8.29927 11.9564 7.85616 11.1965C7.61368 10.7733 7.46076 10.3029 7.40726 9.81557C7.39865 9.71364 7.39599 9.61127 7.3993 9.50901ZM13.8034 7.36576C13.7031 7.36469 13.6035 7.38385 13.5105 7.42216C13.4174 7.46047 13.3326 7.51717 13.2611 7.58901C13.1895 7.66084 13.1325 7.74639 13.0934 7.84076C13.0543 7.93514 13.0338 8.03647 13.0331 8.13895C13.0351 8.34439 13.1152 8.54101 13.2564 8.6873C13.3977 8.83358 13.589 8.91809 13.7901 8.92301C13.891 8.92445 13.9911 8.90536 14.0847 8.86684C14.1783 8.82833 14.2634 8.77115 14.3351 8.69867C14.4068 8.62619 14.4637 8.53984 14.5024 8.44468C14.541 8.34951 14.5608 8.24743 14.5604 8.14438C14.5622 8.04323 14.5443 7.94273 14.5078 7.8487C14.4712 7.75466 14.4168 7.66895 14.3476 7.59654C14.2785 7.52413 14.1959 7.46644 14.1048 7.42683C14.0137 7.38722 13.9157 7.36646 13.8167 7.36576H13.8034ZM9.83238 8.13895C9.83081 8.29348 9.87414 8.44501 9.95689 8.57438C10.0396 8.70375 10.1581 8.80515 10.2972 8.86577C10.4364 8.92638 10.5901 8.94348 10.7388 8.91491C10.8874 8.88634 11.0245 8.81339 11.1326 8.70526C11.2407 8.59714 11.315 8.45871 11.346 8.30747C11.3771 8.15623 11.3635 7.99898 11.3071 7.8556C11.2507 7.71222 11.1539 7.58916 11.029 7.50197C10.904 7.41478 10.7566 7.36738 10.6053 7.36576C10.5047 7.36396 10.4047 7.3826 10.3112 7.42062C10.2176 7.45864 10.1324 7.51528 10.0605 7.58722C9.98858 7.65916 9.93138 7.74497 9.89222 7.83969C9.85306 7.93441 9.83272 8.03614 9.83238 8.13895Z" fill="#6648FF"/>
</svg>
