<svg width="17" height="12" viewBox="0 0 17 12" fill="none" xmlns="http://www.w3.org/2000/svg">
<path fill-rule="evenodd" clip-rule="evenodd" d="M1.74921 11.6575C1.44615 11.5656 1.16944 11.4016 0.942446 11.1793C0.71545 10.957 0.544816 10.6829 0.444928 10.3802C-0.120878 8.81369 -0.288224 2.2611 0.798229 0.970395C1.15365 0.53755 1.66458 0.264126 2.21938 0.209889C5.14138 -0.10877 14.2129 -0.0578854 15.2568 0.317008C15.55 0.412814 15.8177 0.574395 16.04 0.789613C16.2622 1.00483 16.4331 1.26806 16.5399 1.5595C17.1561 3.16619 17.1774 9.05737 16.4575 10.6292C16.2646 11.0365 15.9407 11.3659 15.5384 11.5638C14.444 12.1315 3.18896 12.1262 1.74921 11.6575ZM6.40581 8.58609L11.6867 5.82525L6.40581 3.04836V8.58609Z" fill="#6648FF"/>
</svg>
